<?xml version="1.0" standalone="no"?>
<!DOCTYPE svg PUBLIC "-//W3C//DTD SVG 1.1//EN" "http://www.w3.org/Graphics/SVG/1.1/DTD/svg11.dtd" >
<svg>
<metadata>
Created by FontForge 20090914 at Mon Aug 31 13:29:25 2020
 By www-data
Copyright (c) 2002, Adobe
</metadata>
<defs>
<font id="UniversLT-75BlkObl" horiz-adv-x="667" >
  <font-face 
    font-family="Univers LT Black"
    font-weight="900"
    font-stretch="normal"
    units-per-em="1000"
    panose-1="2 0 10 3 0 0 0 0 0 0"
    ascent="800"
    descent="-200"
    x-height="501"
    cap-height="722"
    bbox="-43.999 -250 1145 986"
    underline-thickness="50"
    underline-position="-50"
    unicode-range="U+000D-U+2122"
  />
<missing-glyph horiz-adv-x="500" 
d="M0 0v700h500v-700h-500zM250 395l170 255h-340zM280 350l170 -255v510zM80 50h340l-170 255zM50 605v-510l170 255z" />
    <glyph glyph-name=".notdef" horiz-adv-x="500" 
d="M0 0v700h500v-700h-500zM250 395l170 255h-340zM280 350l170 -255v510zM80 50h340l-170 255zM50 605v-510l170 255z" />
    <glyph glyph-name="glyph1" horiz-adv-x="0" 
 />
    <glyph glyph-name="glyph1" horiz-adv-x="0" 
 />
    <glyph glyph-name="uni000D" unicode="&#xd;" horiz-adv-x="1000" 
 />
    <glyph glyph-name="space" unicode=" " horiz-adv-x="333" 
 />
    <glyph glyph-name="exclam" unicode="!" horiz-adv-x="444" 
d="M264 722h216l-142 -507h-144zM133 0l32 149h176l-32 -149h-176z" />
    <glyph glyph-name="quotedbl" unicode="&#x22;" horiz-adv-x="500" 
d="M299 427h-99l27 266h157zM496 427h-98l27 266h156z" />
    <glyph glyph-name="numbersign" unicode="#" 
d="M362 693h139l-69 -174h89l69 174h139l-69 -174h81l-25 -119h-103l-45 -115h80l-26 -119h-102l-66 -166h-139l65 166h-89l-65 -166h-140l66 166h-81l26 119h103l46 115h-81l25 119h103zM339 285h89l46 115h-89z" />
    <glyph glyph-name="dollar" unicode="$" 
d="M86 207l179.997 -0.00585938c-1.33301 -10 -2.16602 -18.667 -2.49902 -26s0.666992 -16.166 3 -26.499s7.83301 -19.333 16.5 -27s20.334 -13.5 35.001 -17.5l33 153l-59 17c-18.667 5.33301 -33.167 9.83301 -43.5 13.5s-24 10.334 -41 20.001
s-29.833 20.334 -38.5 32.001s-15.167 27.834 -19.5 48.501s-3.5 44 2.5 70c4.66699 24.667 14 48.167 28 70.5s32.167 43.333 54.5 63s51 35.5 86 47.5s73.5 18.667 115.5 20l19 90h59l-19 -90c48 -2 86.833 -8.66699 116.5 -20s50.667 -26.833 63 -46.5
s19.333 -40.334 21 -62.001s-0.5 -47.167 -6.5 -76.5h-182c3.33301 16 4.33301 30 3 42s-4.83301 20.833 -10.5 26.5s-10.667 9.66699 -15 12s-9.16602 3.83301 -14.499 4.5l-31 -143c57.333 -13.333 98.5 -24.5 123.5 -33.5s46.5 -22.5 64.5 -40.5
c31.333 -32.667 41.333 -76.667 30 -132c-2.66699 -12.667 -6.83398 -25.667 -12.501 -39s-14 -28.666 -25 -45.999s-26.5 -34.166 -46.5 -50.499s-43.333 -30.5 -70 -42.5c-37.333 -16.667 -88 -27 -152 -31l-19 -89h-59l19 89
c-23.333 0.666992 -44.666 2.83398 -63.999 6.50098s-40 10.5 -62 20.5s-39.667 22.5 -53 37.5s-23 36 -29 63s-5.33301 57.833 2 92.5zM383.997 417.994l27 128c-40 -10 -63.667 -31.333 -71 -64c-2.66699 -15.333 0 -28.833 8 -40.5s20 -19.5 36 -23.5zM406.997 249.994
l-29.9971 -142c25.333 4 45.666 12.667 60.999 26s24.666 29 27.999 47c7.33301 34 -7.33398 55.333 -44.001 64z" />
    <glyph glyph-name="percent" unicode="%" horiz-adv-x="1000" 
d="M181 536c28.667 134.667 100.668 202 216.001 202c55.333 0 94.333 -16.333 117 -49c22.667 -34 27 -84 13 -150s-37 -115.333 -69 -148c-40.667 -42 -90.334 -63 -149.001 -63c-52.667 0 -91 16.667 -115 50c-24 34 -28.333 86.667 -13 158zM304.001 523
c-4.66699 -23.333 -7.33301 -42.666 -8 -57.999s1 -26 5 -32s8 -10 12 -12s9 -3 15 -3c17.333 0 31 8.33301 41 25s19.667 46.667 29 90c10.667 49.333 14 81.5 10 96.5s-13.667 22.5 -29 22.5c-10 0 -18.5 -2.33301 -25.5 -7s-15 -16.834 -24 -36.501
s-17.5 -48.167 -25.5 -85.5zM661.002 208c28.667 135.333 100.668 202.999 216.001 202.999c55.333 0 94.333 -16.667 117 -50s27 -83.333 13 -150c-14 -64.667 -37 -114 -69 -148c-40.667 -42 -90.334 -63 -149.001 -63c-52 0 -90 16.667 -114 50
c-24 34.667 -28.667 87.334 -14 158.001zM785.003 195.999c-6.66699 -30.667 -9.16895 -54.333 -7.50195 -71s4.83398 -26.667 9.50098 -30s11.334 -5 20.001 -5c17.333 0 31.333 8.5 42 25.5s20.667 47.167 30 90.5c10 48.667 13 80.5 9 95.5s-13.667 22.5 -29 22.5
c-10 0 -18.5 -2.16699 -25.5 -6.5s-14.833 -16.333 -23.5 -36s-17 -48.167 -25 -85.5zM808.001 750h107l-537 -762h-111z" />
    <glyph glyph-name="ampersand" unicode="&#x26;" horiz-adv-x="889" 
d="M752 398l173.003 0.000976562c-12.667 -48 -30.5 -90.5 -53.5 -127.5s-58.167 -75.5 -105.5 -115.5l113 -155h-243l-33 47c-24 -12 -44.167 -21.5 -60.5 -28.5s-42.833 -14.167 -79.5 -21.5s-76.334 -11 -119.001 -11c-126 0 -206.333 30.333 -241 91
c-20.667 37.333 -26.334 77.666 -17.001 120.999c6 28.667 16.833 54.334 32.5 77.001s35.667 41.834 60 57.501s44 27.167 59 34.5s34.833 15.666 59.5 24.999c-10.667 11.333 -18.667 20.666 -24 27.999s-12.833 18.833 -22.5 34.5s-15.834 32.834 -18.501 51.501
s-2 38 2 58c12.667 58.667 47.667 102.667 105 132s125 44 203 44c18.667 0 36.667 -0.833008 54 -2.5s38.833 -6 64.5 -13s46.834 -16.333 63.501 -28s29.667 -29.167 39 -52.5s10.666 -50.666 3.99902 -81.999c-4.66699 -24 -12.834 -45.833 -24.501 -65.5
s-27.167 -37.834 -46.5 -54.501s-35.666 -29.334 -48.999 -38.001s-32.333 -20.334 -57 -35.001l82 -102c41.333 40.667 68 84.334 80 131.001zM484.003 476.001c10 4.66699 20.8301 10.666 32.4971 17.999s24.834 18.333 39.501 33s23.334 29.334 26.001 44.001
c4 18 0 32.333 -12 43s-28.667 16 -50 16s-40.333 -5.5 -57 -16.5s-27 -25.167 -31 -42.5c-1.33301 -7.33301 -1.66602 -13.833 -0.999023 -19.5s5.16699 -15.167 13.5 -28.5s21.5 -29 39.5 -47zM511 153l-106 131.999c-66 -27.333 -102.667 -58 -110 -92
c-4.66699 -21.333 1 -40.666 17 -57.999s42.667 -26 80 -26c48 0 87.667 14.667 119 44z" />
    <glyph glyph-name="quotesingle" unicode="'" horiz-adv-x="333" 
d="M307 427h-99l27 266h157z" />
    <glyph glyph-name="parenleft" unicode="(" horiz-adv-x="333" 
d="M326 753l130.002 -0.00195312c-62 -122.667 -104.5 -211.5 -127.5 -266.5s-40.833 -111.5 -53.5 -169.5c-12.667 -61.333 -19.834 -123.666 -21.501 -186.999s4.16602 -147.333 17.499 -252h-132c-11.333 48.667 -20.333 89.834 -27 123.501s-11 80.5 -13 140.5
s2.66699 116.667 14 170c10.667 48.667 29.5 102.667 56.5 162s51 106.833 72 142.5s49.167 81.167 84.5 136.5z" />
    <glyph glyph-name="parenright" unicode=")" horiz-adv-x="333" 
d="M141 -122l-129.999 0.000976562c62 122 104.5 210.833 127.5 266.5s40.833 112.5 53.5 170.5c13.333 61.333 20.666 123.5 21.999 186.5s-4.66699 146.833 -18 251.5h132c12 -47.333 21.167 -88 27.5 -122s10.5 -81 12.5 -141s-2.66699 -116.667 -14 -170
c-10 -48.667 -28.667 -102.834 -56 -162.501s-51.333 -107 -72 -142z" />
    <glyph glyph-name="asterisk" unicode="*" horiz-adv-x="556" 
d="M402 597l71 138l95 -68l-115 -102l143 30l-27 -129l-127 31l71 -110l-127 -61l-14 135l-73 -136l-94 63l117 109l-144 -29l27 127l133 -30l-72 105l121 64z" />
    <glyph glyph-name="plus" unicode="+" horiz-adv-x="660" 
d="M259 0l42 199h-198l30 140h198l42 199h143l-42 -199h197l-30 -140h-197l-42 -199h-143z" />
    <glyph glyph-name="comma" unicode="," horiz-adv-x="333" 
d="M121 149h188l-175 -268h-136z" />
    <glyph glyph-name="hyphen" unicode="-" horiz-adv-x="333" 
d="M91 323h284l-26 -119h-284z" />
    <glyph glyph-name="period" unicode="." horiz-adv-x="333" 
d="M72 0l32 149h176l-32 -149h-176z" />
    <glyph glyph-name="slash" unicode="/" horiz-adv-x="278" 
d="M92 -16h-126l378 743h125z" />
    <glyph glyph-name="zero" unicode="0" 
d="M104 350c25.333 116.667 72.6689 208 142.002 274c61.333 59.333 138.666 89 231.999 89c100 0 167 -30 201 -90c41.333 -65.333 49.666 -156 24.999 -272c-23.333 -108.667 -66.166 -196.667 -128.499 -264s-145.5 -101 -249.5 -101c-92.667 0 -157.334 28 -194.001 84
c-44 66.667 -53.333 160 -28 280zM300.003 347c-17.333 -79.333 -22.667 -137.332 -16 -173.999s29.667 -55 69 -55c35.333 0 64 13.667 86 41c27.333 36 50.333 97.333 69 184c14.667 70 20.667 125.667 18 167c-3.33301 47.333 -27.333 71 -72 71c-16 0 -30 -2.5 -42 -7.5
s-24.833 -15 -38.5 -30s-26.667 -38.833 -39 -71.5s-23.833 -74.334 -34.5 -125.001z" />
    <glyph glyph-name="one" unicode="1" 
d="M277 0l109 515c-27.333 -19.333 -59.5 -37 -96.5 -53s-67.167 -27 -90.5 -33l33 154c44.667 13.333 82.667 27.5 114 42.5s68 37.833 110 68.5h162l-148 -694h-193z" />
    <glyph glyph-name="two" unicode="2" 
d="M35 0l30.999 144c112.667 72 200.334 130 263.001 174s109 82.333 139 115c22.667 26.667 36.667 53 42 79c6 27.333 2.16699 45.833 -11.5 55.5s-29.834 14.5 -48.501 14.5c-17.333 0 -32.5 -3 -45.5 -9s-23.167 -14.5 -30.5 -25.5s-12.5 -19.333 -15.5 -25
s-5.83301 -12.834 -8.5 -21.501h-195c10.667 49.333 37 94 79 134c55.333 53.333 140 80 254 80c107.333 0 177 -28.333 209 -85c18 -31.333 22.333 -68.666 13 -111.999c-6 -28 -17.667 -55.667 -35 -83s-35.833 -51.333 -55.5 -72s-49.667 -45.5 -90 -74.5
s-74.166 -52.5 -101.499 -70.5l-127 -80h330l-29 -138h-567z" />
    <glyph glyph-name="three" unicode="3" 
d="M68 200h193.996c-9.33301 -56 18.334 -84 83.001 -84c38.667 0 68.167 9 88.5 27s33.166 39.667 38.499 65c12.667 59.333 -29.666 89 -126.999 89c-19.333 0 -37.666 -0.666992 -54.999 -2l26 124c44 -2 79.333 -1 106 3c20.667 2.66699 38.334 8.33398 53.001 17.001
s25.334 18.5 32.001 29.5s11.334 19.333 14.001 25s4.33398 11.167 5.00098 16.5c5.33301 24 0.833008 43 -13.5 57s-35.5 21 -63.5 21c-56.667 0 -92 -26.667 -106 -80h-193c17.333 69.333 56.166 121.333 116.499 156s132.5 52 216.5 52
c87.333 0 151.666 -17.167 192.999 -51.5s56.333 -78.5 45 -132.5c-9.33301 -42.667 -32.333 -79.667 -69 -111s-79 -49.333 -127 -54l-1 -5c114 -12.667 160.333 -69 139 -169c-13.333 -62.667 -48 -111.667 -104 -147c-62 -39.333 -142 -59 -240 -59
c-112 0 -187.667 26.667 -227 80c-24.667 33.333 -32.667 77.666 -24 132.999z" />
    <glyph glyph-name="four" unicode="4" 
d="M352 0l29 138h-335l35 163l377 396h222l-92 -432h112l-27 -127h-112l-29 -138h-180zM202 265h209l61 285z" />
    <glyph glyph-name="five" unicode="5" 
d="M91 198l190.999 0.000976562c-4.66699 -25.333 -0.5 -44.833 12.5 -58.5s31.833 -20.5 56.5 -20.5c36.667 0 66.667 15 90 45c14 20 24 44.333 30 73c6.66699 31.333 5 57.166 -5 77.499s-30.667 30.5 -62 30.5c-22.667 0 -42 -6 -58 -18s-27.333 -26.333 -34 -43l-191 2
l100 407h500l-29 -136h-326l-48 -170c24.667 29.333 53.334 51 86.001 65c30.667 14 63.334 21 98.001 21c57.333 0 103.5 -18.833 138.5 -56.5s44.167 -95.167 27.5 -172.5c-17.333 -82 -56.333 -146.333 -117 -193c-56.667 -44 -129.334 -66 -218.001 -66
c-110 0 -183.333 26.333 -220 79c-24.667 34 -32 78.667 -22 134z" />
    <glyph glyph-name="six" unicode="6" 
d="M707 522l-182.998 -0.000976562c3.33301 28 -3.66699 48.333 -21 61c-11.333 8 -25.666 12 -42.999 12c-45.333 0 -83.666 -26.333 -114.999 -79c-16.667 -26.667 -31.667 -71.667 -45 -135c51.333 58 116.666 87 195.999 87c69.333 0 120.666 -20.667 153.999 -62
s42.666 -96.333 27.999 -165c-9.33301 -46 -26.5 -86.167 -51.5 -120.5s-54 -60.833 -87 -79.5s-66.333 -32.5 -100 -41.5s-67.167 -13.5 -100.5 -13.5c-110 0 -181.667 37.333 -215 112c-30 65.333 -34.333 148.666 -13 249.999c10 48 24.667 92.667 44 134
s44 79.833 74 115.5s68.167 63.834 114.5 84.501s97.833 31 154.5 31c21.333 0 41.5 -1.33301 60.5 -4s39.167 -8.16699 60.5 -16.5s39.166 -19.166 53.499 -32.499s25 -31.833 32 -55.5s7.83301 -51.167 2.5 -82.5zM500.002 231.999
c2.66699 10 3.99902 20.002 3.99902 30.002s-1.5 22.333 -4.5 37s-11.333 26.667 -25 36s-32.167 14 -55.5 14c-34.667 0 -64.167 -10.833 -88.5 -32.5s-40.166 -50.834 -47.499 -87.501c-8.66699 -40 -4.66699 -69 12 -87s40 -27 70 -27c34.667 0 64 10.667 88 32
s39.667 49.666 47 84.999z" />
    <glyph glyph-name="seven" unicode="7" 
d="M163 550l30 141h551l-30 -140l-378 -551h-223l404 550h-354z" />
    <glyph glyph-name="eight" unicode="8" 
d="M292 365l-0.00488281 2.99805c-44 4.66699 -77.833 20.667 -101.5 48s-30.5 64 -20.5 110c12 58 44.667 103 98 135c56 34 128 51 216 51c114 0 186.667 -29.667 218 -89c15.333 -26.667 19 -58 11 -94c-7.33301 -35.333 -26.166 -68.666 -56.499 -99.999
s-73.166 -52 -128.499 -62l-1 -5c54.667 -6 94.167 -24 118.5 -54s31.5 -68.333 21.5 -115c-13.333 -62 -47.666 -112 -102.999 -150s-131.666 -57 -228.999 -57c-107.333 0 -181.166 19.333 -221.499 58s-54.5 86.667 -42.5 144c9.33301 44.667 32.5 82.834 69.5 114.501
s87.5 52.5 151.5 62.5zM420.995 425.998c20.667 0 38.5 3.49902 53.5 10.499s26.5 15.833 34.5 26.5s13.5 19.667 16.5 27s5.5 14.333 7.5 21c4 21.333 0.5 40.833 -10.5 58.5s-33.167 26.5 -66.5 26.5c-26.667 0 -50.5 -7.16699 -71.5 -21.5s-34.5 -35.166 -40.5 -62.499
c-5.33301 -25.333 -2 -46 10 -62s34.333 -24 67 -24zM352.995 110.997c41.333 0 72.999 9.66797 94.999 29.001s35.667 41.666 41 66.999c6 28 1.16699 51.5 -14.5 70.5s-43.167 28.5 -82.5 28.5c-38.667 0 -69.167 -9.83301 -91.5 -29.5s-36.5 -42.5 -42.5 -68.5
c-4.66699 -24 -0.666992 -46.167 12 -66.5s40.334 -30.5 83.001 -30.5z" />
    <glyph glyph-name="nine" unicode="9" 
d="M74 178h183.994c-4 -20 1 -36.5 15 -49.5s34.667 -19.5 62 -19.5c20.667 0 39.167 3.5 55.5 10.5s30 16.167 41 27.5s20.833 26.666 29.5 45.999s15.834 38.5 21.501 57.5s11.834 42.5 18.501 70.5c-51.333 -47.333 -110.333 -71 -177 -71c-76 0 -130.333 21 -163 63
c-33.333 43.333 -43 96.666 -29 159.999c14.667 71.333 53.334 129.333 116.001 174s137.334 67 224.001 67c132 0 209 -53 231 -159c12.667 -60 10.334 -130 -6.99902 -210c-23.333 -111.333 -66.666 -198.666 -129.999 -261.999c-66 -66 -153.333 -99 -262 -99
c-102 0 -172.667 26 -212 78c-19.333 26.667 -25.333 65.334 -18 116.001zM394.994 369c36 0 65.501 9.83203 88.501 29.499s37.833 45.834 44.5 78.501c6.66699 28.667 3.83398 54.167 -8.49902 76.5s-37.5 33.5 -75.5 33.5c-35.333 0 -64.333 -10 -87 -30
s-37.334 -46 -44.001 -78c-6.66699 -30 -3.83398 -55.833 8.49902 -77.5s36.833 -32.5 73.5 -32.5z" />
    <glyph glyph-name="colon" unicode=":" horiz-adv-x="333" 
d="M79 0l32 149h176l-32 -149h-176zM154 352l31 149h176l-31 -149h-176z" />
    <glyph glyph-name="semicolon" unicode=";" horiz-adv-x="333" 
d="M154 352l31 149h174l-31 -149h-174zM121 149h188l-175 -268h-136z" />
    <glyph glyph-name="less" unicode="&#x3c;" horiz-adv-x="660" 
d="M103 196l31 146l582 209l-32 -150l-399 -132l343 -131l-32 -152z" />
    <glyph glyph-name="equal" unicode="=" horiz-adv-x="660" 
d="M128 317l30 141h538l-30 -141h-538zM78 80l30 141h538l-30 -141h-538z" />
    <glyph glyph-name="greater" unicode="&#x3e;" horiz-adv-x="660" 
d="M641 196l-582 -210l32 152l398 131l-342 132l32 150l493 -209z" />
    <glyph glyph-name="question" unicode="?" horiz-adv-x="556" 
d="M200 595l27.9971 130c56.667 10 111 15 163 15c34 0 65.333 -2.5 94 -7.5s56.834 -14 84.501 -27s47.5 -33 59.5 -60s13.667 -59.833 5 -98.5c-2.66699 -12.667 -5 -22.5 -7 -29.5s-6.83301 -17.167 -14.5 -30.5s-17.5 -25.666 -29.5 -36.999s-29.167 -25.5 -51.5 -42.5
s-49.166 -35.167 -80.499 -54.5c-22 -14 -38.833 -27 -50.5 -39s-19 -22 -22 -30s-6.16699 -20.333 -9.5 -37l-12 -54h-157l20 96c2.66699 13.333 6.83398 24.166 12.501 32.499s19.167 21.5 40.5 39.5l94 80c12.667 10.667 22 19 28 25s12.167 13.833 18.5 23.5
s10.833 20.167 13.5 31.5c5.33301 27.333 -1.16699 49.333 -19.5 66s-49.5 25 -93.5 25c-36.667 0 -74.667 -5.66699 -114 -17zM147.997 0l32 149h176l-32 -149h-176z" />
    <glyph glyph-name="at" unicode="@" horiz-adv-x="740" 
d="M707 144l26.0029 -48.999c-62 -39.333 -119.667 -67.833 -173 -85.5s-108.333 -26.5 -165 -26.5c-80 0 -146.833 17.833 -200.5 53.5s-89.834 81.334 -108.501 137.001s-21.334 116.167 -8.00098 181.5c23.333 108.667 82.333 200.5 177 275.5s200 112.5 316 112.5
c98 0 174.5 -27.833 229.5 -83.5s72.833 -129.5 53.5 -221.5c-14.667 -70.667 -48.334 -132.167 -101.001 -184.5s-110 -78.5 -172 -78.5c-20 0 -38.167 6 -54.5 18s-22.5 32.667 -18.5 62c-43.333 -57.333 -94.333 -86 -153 -86c-41.333 0 -72.166 14.167 -92.499 42.5
s-25.166 67.166 -14.499 116.499c13.333 62.667 45.666 119.167 96.999 169.5s105.333 75.5 162 75.5c23.333 0 43.666 -5.33301 60.999 -16s28.333 -26 33 -46l21 45h109l-102 -203c-19.333 -40.667 -29.333 -63.334 -30 -68.001c-3.33301 -14.667 -1.5 -24.667 5.5 -30
s14.833 -8 23.5 -8c25.333 0 54.833 19.167 88.5 57.5s56.167 84.5 67.5 138.5c16 76 1.66699 134.667 -43 176s-105.334 62 -182.001 62c-100 0 -188.333 -31.833 -265 -95.5s-124.667 -141.5 -144 -233.5c-18.667 -86 -4.66699 -158.667 42 -218s120.667 -89 222 -89
c96.667 0 194.334 33 293.001 99zM554.003 449.001c3.33301 14.667 1.33203 25.834 -6.00098 33.501s-16.666 11.5 -27.999 11.5c-30 0 -59.833 -20.667 -89.5 -62s-48.5 -80 -56.5 -116c-4.66699 -24 -3.5 -41.333 3.5 -52s17.167 -16 30.5 -16
c23.333 0 46.333 15.667 69 47c10 14.667 24.5 39.667 43.5 75s30.167 61.666 33.5 78.999z" />
    <glyph glyph-name="A" unicode="A" horiz-adv-x="833" 
d="M8 0l438 722h244l132 -722h-226l-19 145h-289l-80 -145h-200zM363 278h196l-29 303h-3z" />
    <glyph glyph-name="B" unicode="B" horiz-adv-x="722" 
d="M61 0l152.999 722h289c40.667 0 72 -0.666992 94 -2s47.333 -6.5 76 -15.5s51.334 -22.833 68.001 -41.5c29.333 -33.333 39 -74.666 29 -123.999c-5.33301 -24 -14.666 -45.833 -27.999 -65.5s-26.333 -34.667 -39 -45s-28.834 -19.833 -48.501 -28.5
s-33.5 -14.167 -41.5 -16.5s-18.667 -5.16602 -32 -8.49902l-1 -2c13.333 -2.66699 24.833 -5.16699 34.5 -7.5s23 -7.83301 40 -16.5s30.5 -18.834 40.5 -30.501s17.5 -28.334 22.5 -50.001s4.5 -46.5 -1.5 -74.5c-15.333 -74 -60.333 -128.667 -135 -164
c-42 -20 -109 -30 -201 -30h-319zM380.999 591l-34 -160h94c35.333 0 59.333 3 72 9c28 14 45.333 37.333 52 70c6 28 1.33301 49.333 -14 64c-12 11.333 -32.333 17 -61 17h-109zM319.999 303l-36 -171h111c68.667 0 109 28 121 84c12 58 -18.333 87 -91 87h-105z" />
    <glyph glyph-name="C" unicode="C" horiz-adv-x="778" 
d="M837 495l-205.998 0.000976562c3.33301 34.667 -4 60 -22 76s-42.667 24 -74 24c-105.333 0 -175 -81 -209 -243c-2.66699 -12 -4.66699 -22.833 -6 -32.5s-2.83301 -24.5 -4.5 -44.5s-0.833984 -37.667 2.49902 -53s8.66602 -30.833 15.999 -46.5
s19.666 -27.834 36.999 -36.501s38.333 -13 63 -13s46.334 3.83301 65.001 11.5s33.167 18.167 43.5 31.5s17.666 24.166 21.999 32.499s8.5 18.166 12.5 29.499h208c-6.66699 -31.333 -17.167 -59.666 -31.5 -84.999s-30.166 -46.166 -47.499 -62.499
s-37.5 -30.833 -60.5 -43.5s-44.667 -22.334 -65 -29.001s-42.166 -12 -65.499 -16s-43 -6.5 -59 -7.5s-32 -1.5 -48 -1.5c-122 0 -206.667 32 -254 96c-48 66 -59.333 157.333 -34 274c24 114.667 73.667 206.334 149 275.001c77.333 70.667 176.333 106 297 106
c119.333 0 200.666 -29.333 243.999 -88c29.333 -40 38.333 -91.333 27 -154z" />
    <glyph glyph-name="D" unicode="D" horiz-adv-x="833" 
d="M73 0l152.999 722h305c124.667 0 212.334 -20 263.001 -60c77.333 -62 101.333 -161.667 72 -299c-18 -84 -48.167 -154 -90.5 -210s-101.5 -97.667 -177.5 -125c-53.333 -18.667 -126 -28 -218 -28h-307zM401.999 585l-94.0029 -446h86
c70.667 0.666992 128.334 18.5 173.001 53.5s75.667 92.5 93 172.5c8.66699 41.333 10 76.833 4 106.5s-15.333 51.5 -28 65.5s-30.667 24.833 -54 32.5s-41.166 12 -53.499 13s-28.166 1.5 -47.499 1.5z" />
    <glyph glyph-name="E" unicode="E" 
d="M69 0l153 720h542l-29 -138h-344l-32 -150h324l-30 -138h-324l-32 -154h352l-30 -140h-550z" />
    <glyph glyph-name="F" unicode="F" horiz-adv-x="611" 
d="M71 0l153 720h511l-30 -139h-312l-35 -168h290l-30 -139h-290l-58 -274h-199z" />
    <glyph glyph-name="G" unicode="G" horiz-adv-x="833" 
d="M872 506h-202.998c4 64 -31 96 -105 96c-43.333 0 -82 -12 -116 -36s-60.5 -53.333 -79.5 -88s-33.167 -73.667 -42.5 -117c-17.333 -80.667 -10.5 -140.834 20.5 -180.501s78.5 -59.5 142.5 -59.5c32 0 69.667 4 113 12l30 140h-153l29 137h341l-82 -386
c-117.333 -26.667 -226.333 -40 -327 -40c-113.333 0 -198 25 -254 75c-38 33.333 -62.5 76.333 -73.5 129s-10.167 109 2.5 169c10.667 50.667 30.167 102.167 58.5 154.5s65.166 96.5 110.499 132.5c81.333 64 187.666 96 318.999 96c122 0 204 -28 246 -84
c12.667 -16.667 21 -35.667 25 -57s5.33301 -37.666 4 -48.999s-3.33301 -26 -6 -44z" />
    <glyph glyph-name="H" unicode="H" horiz-adv-x="778" 
d="M65 0l153 722h202l-59 -282h241l59 282h203l-153 -722h-203l62 292h-242l-62 -292h-201z" />
    <glyph glyph-name="I" unicode="I" horiz-adv-x="333" 
d="M60 0l153 722h206l-153 -722h-206z" />
    <glyph glyph-name="J" unicode="J" horiz-adv-x="611" 
d="M54 231l199 0.000976562c-2 -9.33301 -3.33301 -16.833 -4 -22.5s-1.16699 -14.167 -1.5 -25.5s0.833984 -20.333 3.50098 -27s8 -12.834 16 -18.501s18.333 -8.5 31 -8.5c17.333 0 32.166 3.5 44.499 10.5s21.833 17.167 28.5 30.5s11.5 24.333 14.5 33
s5.83301 20 8.5 34l103 485h203l-101 -478c-16.667 -77.333 -45.334 -135.333 -86.001 -174c-62 -57.333 -143.667 -86 -245 -86c-109.333 0 -180.333 32.667 -213 98c-15.333 31.333 -15.666 81 -0.999023 149z" />
    <glyph glyph-name="K" unicode="K" horiz-adv-x="778" 
d="M76 0l153 722h203l-67 -317l298 317h237l-316 -318l183 -404h-248l-158 384l-82 -384h-203z" />
    <glyph glyph-name="L" unicode="L" horiz-adv-x="611" 
d="M67 0l153 722h203l-123 -580h324l-30 -142h-527z" />
    <glyph glyph-name="M" unicode="M" horiz-adv-x="1000" 
d="M63 0l153 722h315l17 -489l217 489l315 1l-153 -723h-189l138 606l-300 -606h-180l-35 611l-125 -611h-173z" />
    <glyph glyph-name="N" unicode="N" horiz-adv-x="833" 
d="M67 0l153 722h276l130 -538l112 538h175l-153 -722h-270l-130 561l-117 -561h-176z" />
    <glyph glyph-name="O" unicode="O" horiz-adv-x="833" 
d="M116 358c3.33301 16.667 8 34.3281 14 52.9951s15 42.167 27 70.5s28.333 56.833 49 85.5s43.667 53.667 69 75c80.667 66.667 182 100 304 100c55.333 0 103 -7.83301 143 -23.5s70.833 -35.834 92.5 -60.501s37.5 -54.167 47.5 -88.5s14.667 -68.666 14 -102.999
s-5 -70.166 -13 -107.499c-11.333 -55.333 -29.5 -105.166 -54.5 -149.499s-52.5 -80.333 -82.5 -108s-63.833 -50.667 -101.5 -69s-74.167 -31.166 -109.5 -38.499s-71.333 -11 -108 -11c-50 0 -94.833 7.16699 -134.5 21.5s-74.167 35.833 -103.5 64.5
s-49 67.834 -59 117.501s-8 106.834 6 171.501zM322 358.994c-32 -152.667 7.66602 -229 118.999 -229s183.333 77.333 216 232c16.667 77.333 14.334 138.333 -6.99902 183c-18 34.667 -54.333 52 -109 52c-112 0 -185 -79.333 -219 -238z" />
    <glyph glyph-name="P" unicode="P" horiz-adv-x="722" 
d="M73 0l152.999 722h332c86 0 146.333 -12.333 181 -37c58.667 -41.333 78.667 -106.666 60 -195.999c-5.33301 -24 -13.166 -46.5 -23.499 -67.5s-21 -38.333 -32 -52s-23.167 -26.334 -36.5 -38.001s-24.5 -20.167 -33.5 -25.5s-17.5 -10 -25.5 -14
c-42 -20.667 -105 -31 -189 -31l-130 -1l-55 -260h-201zM398.999 588l-40.001 -189.999h89c17.333 0 31.333 0.666992 42 2s24.334 4.66602 41.001 9.99902s30.5 15.166 41.5 29.499s18.833 32.833 23.5 55.5c4.66699 20.667 4.66699 37.667 0 51s-13.5 22.833 -26.5 28.5
s-25.5 9.33398 -37.5 11.001s-27 2.5 -45 2.5h-88z" />
    <glyph glyph-name="Q" unicode="Q" horiz-adv-x="833" 
d="M848 130l-27.999 -129.002c-141.333 0.666992 -237.333 -0.333008 -288 -3c-5.33301 0 -19.833 -0.666992 -43.5 -2s-46.334 -2.5 -68.001 -3.5s-35.5 -1.5 -41.5 -1.5c-102 0 -177 32.833 -225 98.5s-61 150.5 -39 254.5c20 92.667 55.333 171.667 106 237
c26 32.667 55.167 60.334 87.5 83.001s65.166 39.167 98.499 49.5s63.5 17.5 90.5 21.5s53.833 6 80.5 6c114.667 0 197.334 -32.333 248.001 -97c51.333 -66 65.666 -151.333 42.999 -256c-8.66699 -42 -21.5 -79.833 -38.5 -113.5s-37.167 -61.667 -60.5 -84
s-41.166 -38.166 -53.499 -47.499s-27.5 -19.333 -45.5 -30c50 14 109 19.667 177 17zM322.001 358.998c-32 -152.667 7.66602 -229 118.999 -229s183.333 77 216 231c16.667 78 14.334 139.333 -6.99902 184c-16.667 34.667 -53 52 -109 52c-112 0 -185 -79.333 -219 -238z
" />
    <glyph glyph-name="R" unicode="R" horiz-adv-x="722" 
d="M65 0l152.998 722.002h334c67.333 0 115.333 -3.33301 144 -10s51 -20.667 67 -42c26.667 -33.333 33.667 -80 21 -140c-13.333 -62 -45 -106.667 -95 -134c-32.667 -18 -72 -30.333 -118 -37l-1 -4c20 -0.666992 37.167 -2.66699 51.5 -6s26.5 -7 36.5 -11
s17.833 -10.667 23.5 -20s9.83398 -17.333 12.501 -24s4.33398 -17.834 5.00098 -33.501s0.666992 -28.167 0 -37.5s-1.33398 -24.333 -2.00098 -45c-6 -88.667 -7.33301 -148 -4 -178h-217c-1.33301 25.333 2.33398 79.666 11.001 162.999c2.66699 22 4 37.5 4 46.5
s-0.666992 19.667 -2 32s-4.83301 20.5 -10.5 24.5s-14 7.66699 -25 11s-25.5 5 -43.5 5h-84l-60 -282h-201zM390.998 589.002l-36.999 -177h75c44 0 72 2 84 6c20.667 6 36.667 17.167 48 33.5s18.666 32.5 21.999 48.5c4 17.333 4 31.833 0 43.5s-9.16699 20.5 -15.5 26.5
s-16.5 10.5 -30.5 13.5s-25.333 4.66699 -34 5s-21 0.5 -37 0.5h-75z" />
    <glyph glyph-name="S" unicode="S" horiz-adv-x="722" 
d="M91 230l201.001 -0.00195312c-2 -9.33301 -3.33301 -17.166 -4 -23.499s0 -15.666 2 -27.999s6 -22.333 12 -30s16.5 -14.667 31.5 -21s33.833 -9.5 56.5 -9.5c6.66699 0 12.834 0.166992 18.501 0.5s14.667 2 27 5s23.166 7 32.499 12s18.666 13.167 27.999 24.5
s15.666 24.666 18.999 39.999c3.33301 18 1.5 32.667 -5.5 44s-21.167 20 -42.5 26l-167 46c-14.667 4 -26.667 7.66699 -36 11s-22.833 10.166 -40.5 20.499s-31.334 22 -41.001 35s-16.834 31 -21.501 54s-4 48.833 2 77.5c14 64 50.833 117.667 110.5 161
s140.167 65 241.5 65c38.667 0 73 -3 103 -9s54.167 -13.5 72.5 -22.5s33.333 -20.667 45 -35s20 -27.833 25 -40.5s7.83301 -27.5 8.5 -44.5s0.333984 -30.833 -0.999023 -41.5s-3.66602 -23 -6.99902 -37h-203c14.667 66.667 -9.66602 100 -72.999 100
c-28.667 0 -53.167 -7.16699 -73.5 -21.5s-32.833 -32.5 -37.5 -54.5c-4 -16 -2.66699 -29.667 4 -41s13.834 -18.666 21.501 -21.999s18.167 -7 31.5 -11l127 -35c18 -4.66699 31.5 -8.5 40.5 -11.5s21.5 -7.66699 37.5 -14s28.167 -12.666 36.5 -18.999
s17.666 -14.833 27.999 -25.5s17.5 -22.167 21.5 -34.5s6.5 -27.333 7.5 -45s-0.833008 -37.167 -5.5 -58.5c-16.667 -77.333 -58.334 -135.5 -125.001 -174.5s-147.667 -58.5 -243 -58.5c-123.333 0 -204.666 28.667 -243.999 86c-26.667 38 -33.667 91.333 -21 160z" />
    <glyph glyph-name="T" unicode="T" 
d="M230 0l123 579h-220l30 143h647l-30 -143h-225l-123 -579h-202z" />
    <glyph glyph-name="U" unicode="U" horiz-adv-x="833" 
d="M225 722h202.001l-91 -429c-10.667 -50 -10.667 -86.333 0 -109c18.667 -39.333 55.667 -59 111 -59c96 0 156.333 58.333 181 175l89 422h195l-88 -418c-22 -102.667 -56.333 -176 -103 -220c-70.667 -68.667 -174.667 -103 -312 -103
c-47.333 0 -88.666 4.33301 -123.999 13s-63.333 19 -84 31s-37.167 28.5 -49.5 49.5s-20.833 39.833 -25.5 56.5s-6.33398 38 -5.00098 64s3.16602 46 5.49902 60s5.83301 32.667 10.5 56z" />
    <glyph glyph-name="V" unicode="V" horiz-adv-x="778" 
d="M264 0l-102 722h221l53 -523l284 523h199l-416 -722h-239z" />
    <glyph glyph-name="W" unicode="W" horiz-adv-x="1000" 
d="M131 0l30 722h199l-44 -526l229 526h245l-3 -522l177 522h181l-277 -722h-240l-11 535l-247 -535h-239z" />
    <glyph glyph-name="X" unicode="X" horiz-adv-x="833" 
d="M457 257l-215 -257h-234l354 376l-181 346h258l94 -224l193 224h230l-329 -342l189 -380h-256z" />
    <glyph glyph-name="Y" unicode="Y" horiz-adv-x="778" 
d="M159 722h232l94 -303l227 303h206l-381 -467l-54 -255h-202l56 264z" />
    <glyph glyph-name="Z" unicode="Z" 
d="M17 0l34 159l449 422h-340l30 139h588l-33 -154l-462 -426h380l-30 -140h-616z" />
    <glyph glyph-name="bracketleft" unicode="[" horiz-adv-x="333" 
d="M33 -123l186 878h278l-21 -102h-137l-143 -672h137l-22 -104h-278z" />
    <glyph glyph-name="backslash" unicode="\" horiz-adv-x="278" 
d="M185 -16l-61 743h125l62 -743h-126z" />
    <glyph glyph-name="bracketright" unicode="]" horiz-adv-x="333" 
d="M-40 -123l22 104h136l143 672h-136l21 102h278l-186 -878h-278z" />
    <glyph glyph-name="asciicircum" unicode="^" horiz-adv-x="660" 
d="M145 286l274 436h128l90 -436h-150l-41 265l-151 -265h-150z" />
    <glyph glyph-name="underscore" unicode="_" horiz-adv-x="500" 
d="M-27 -125l11 50h500l-11 -50h-500z" />
    <glyph glyph-name="grave" unicode="`" horiz-adv-x="333" 
d="M259 581l-155 145h208l76 -145h-129z" />
    <glyph glyph-name="a" unicode="a" horiz-adv-x="611" 
d="M560 0l-179.998 -0.000976562c0 18 3 42 9 72c-48 -54.667 -108.667 -82 -182 -82c-58.667 0 -99.834 14.333 -123.501 43s-30.5 66.334 -20.5 113.001c27.333 128 154.333 187.333 381 178c7.33301 32.667 8.83301 58.167 4.5 76.5s-19.5 27.5 -45.5 27.5
c-20 0 -37.667 -6 -53 -18s-25.333 -31.333 -30 -58h-180c11.333 45.333 31.666 80.333 60.999 105c50 42 124 63 222 63c90 0 150.333 -19.333 181 -58c23.333 -28.667 28.666 -72.667 15.999 -132l-50 -234c-5.33301 -26.667 -8.66602 -58.667 -9.99902 -96z
M424.002 236.999c-21.333 0 -37.333 -0.330078 -48 -0.99707s-24.667 -2.33398 -42 -5.00098s-30.5 -6.33398 -39.5 -11.001s-17.667 -11.834 -26 -21.501s-13.833 -21.5 -16.5 -35.5c-4.66699 -19.333 -2.16699 -35.5 7.5 -48.5s25.167 -19.5 46.5 -19.5c34 0 62 16 84 48
c16.667 24 28 55.333 34 94z" />
    <glyph glyph-name="b" unicode="b" 
d="M214 722h188.999l-58 -273c44.667 44 102.334 66 173.001 66c82.667 0 137.334 -35 164.001 -105c13.333 -37.333 13 -89.333 -1 -156c-18 -85.333 -53.667 -151.333 -107 -198c-50.667 -44.667 -108 -67 -172 -67c-68.667 0 -118.334 28.333 -149.001 85l-22 -74h-176
c13.333 45.333 24.333 87 33 125zM297.999 254c-2.66699 -12.667 -4.66992 -25.668 -6.00293 -39.001s-1.16602 -29.5 0.500977 -48.5s8.33398 -34.5 20.001 -46.5s27.834 -18 48.501 -18c62.667 0 104.667 51 126 153c21.333 100.667 2 151 -58 151
c-21.333 0 -40.5 -5.83301 -57.5 -17.5s-30.333 -27 -40 -46s-17 -35.167 -22 -48.5s-8.83301 -26.666 -11.5 -39.999z" />
    <glyph glyph-name="c" unicode="c" horiz-adv-x="611" 
d="M643 326l-186.002 -0.00195312c12.667 57.333 -3.33301 86 -48 86c-32 0 -57.167 -14 -75.5 -42s-32.833 -66.667 -43.5 -116c-12.667 -60.667 -14.334 -102.5 -5.00098 -125.5s27.333 -34.5 54 -34.5c45.333 0 75.333 34 90 102h190
c-13.333 -63.333 -47.166 -113.833 -101.499 -151.5s-119.833 -56.5 -196.5 -56.5c-84 0 -147.167 22.5 -189.5 67.5s-54.166 111.167 -35.499 198.5c10 47.333 26.667 88.833 50 124.5s50.5 63.334 81.5 83.001s63.5 34.167 97.5 43.5s69.667 14 107 14
c91.333 0 154 -24 188 -72c22.667 -31.333 30.334 -71.666 23.001 -120.999z" />
    <glyph glyph-name="d" unicode="d" 
d="M568 722l188.001 0.00195312l-126 -597c-8 -36.667 -15.333 -78.334 -22 -125.001h-178l12 74c-10 -10.667 -18.833 -19.5 -26.5 -26.5s-19.334 -15.833 -35.001 -26.5s-34.334 -18.834 -56.001 -24.501s-45.5 -8.5 -71.5 -8.5c-41.333 0 -75.333 7.66699 -102 23
s-45.167 36.333 -55.5 63s-16 54.5 -17 83.5s1.83301 60.167 8.5 93.5c18 83.333 53 148 105 194c52 45.333 111.667 68 179 68c26 0 48.5 -3.83301 67.5 -11.5s32.833 -15.667 41.5 -24s18.334 -19.833 29.001 -34.5zM343.001 99.002c32 0 58.8311 14.166 80.498 42.499
s37.5 65.5 47.5 111.5c9.33301 44.667 9.33301 80.834 0 108.501s-29.666 41.5 -60.999 41.5c-19.333 0 -37 -5.5 -53 -16.5s-29 -25.333 -39 -43s-17.667 -34 -23 -49s-9.66602 -29.833 -12.999 -44.5c-3.33301 -15.333 -5.5 -30.166 -6.5 -44.499s-0.333008 -30.333 2 -48
s9 -31.834 20 -42.501s26.167 -16 45.5 -16z" />
    <glyph glyph-name="e" unicode="e" horiz-adv-x="611" 
d="M616 213l-359.999 0.000976562c-17.333 -81.333 6 -122 70 -122c52 0 86 24.333 102 73h175c-19.333 -59.333 -56.333 -103.333 -111 -132s-117.334 -43 -188.001 -43c-87.333 0 -149.5 21.667 -186.5 65s-46.5 106.333 -28.5 189c18 87.333 54.333 155.333 109 204
s127 73 217 73c118.667 0 189 -42.667 211 -128c11.333 -36.667 8 -96.334 -10 -179.001zM280.001 315.001h181.001c10 70 -12.667 105 -68 105c-54.667 0 -92.334 -35 -113.001 -105z" />
    <glyph glyph-name="f" unicode="f" horiz-adv-x="444" 
d="M580 719l-25.998 -121.003c-15.333 4 -32.333 6 -51 6c-14.667 0 -27.667 -2.33301 -39 -7s-20 -10.5 -26 -17.5s-11.333 -15.167 -16 -24.5s-7.83398 -18.666 -9.50098 -27.999s-3.5 -18.333 -5.5 -27h121l-26 -122h-121l-80 -378h-184l80 378h-97l26 122h100
c6 30 11.167 53.5 15.5 70.5s12.166 36.833 23.499 59.5s25 39.834 41 51.501s37.833 21.834 65.5 30.501s60.5 13 98.5 13c32 0 68.667 -2 110 -6z" />
    <glyph glyph-name="g" unicode="g" 
d="M535 505l177.001 0.00292969l-99 -468c-17.333 -82 -56.666 -141.667 -117.999 -179c-60 -37.333 -133 -56 -219 -56c-95.333 0 -161 19.667 -197 59c-22.667 25.333 -30 62.666 -22 111.999h177c-3.33301 -19.333 0.833984 -34.833 12.501 -46.5s30.5 -17.5 56.5 -17.5
c18 0 34 2.66699 48 8s25.167 11.666 33.5 18.999s15.5 17 21.5 29s10.5 22.667 13.5 32s6.16699 20.666 9.5 33.999l14 66c-48 -54 -108 -81 -180 -81c-28 0 -53.667 4.5 -77 13.5s-44 22.833 -62 41.5s-30 44.667 -36 78s-4.33301 72 5 116
c15.333 72 47.166 131.5 95.499 178.5s109.166 70.5 182.499 70.5c75.333 0 124.666 -28.333 147.999 -85zM476.001 269.003c20 93.333 -0.333984 140 -61.001 140c-30.667 0 -57.167 -12.833 -79.5 -38.5s-38.166 -60.167 -47.499 -103.5c-20 -93.333 1.66699 -140 65 -140
c62 0 103 47.333 123 142z" />
    <glyph glyph-name="h" unicode="h" 
d="M65 0l153.003 721.998h190l-58 -275c53.333 44 110.333 66 171 66c56.667 0 99.667 -17 129 -51c13.333 -14 21.666 -30.833 24.999 -50.5s4 -37 2 -52s-6.33301 -37.5 -13 -67.5l-62 -292h-187l57 270c3.33301 16 5.66602 28.833 6.99902 38.5s1.5 22.334 0.5 38.001
s-6.5 27.5 -16.5 35.5s-24 12 -42 12c-40.667 0 -72 -23.333 -94 -70c-6.66699 -15.333 -15.334 -47.666 -26.001 -96.999l-48 -227h-188z" />
    <glyph glyph-name="i" unicode="i" horiz-adv-x="333" 
d="M192 586l28 134h192l-28 -134h-192zM69 0l107 502h188l-107 -502h-188z" />
    <glyph glyph-name="j" unicode="j" horiz-adv-x="333" 
d="M-36 -194l26.002 123c15.333 -2 28.166 -1.33301 38.499 2s18.666 9.83301 24.999 19.5s10.5 18.167 12.5 25.5s4.66699 18.666 8 33.999l105 492h190l-114 -536c-12.667 -59.333 -35.667 -101.166 -69 -125.499s-85.333 -36.5 -156 -36.5
c-24.667 0 -46.667 0.666992 -66 2zM196.002 586l28 134h192l-28 -134h-192z" />
    <glyph glyph-name="k" unicode="k" 
d="M74 0l153 722h184l-93 -442l219 222h208l-216 -212l134 -290h-226l-120 279l-59 -279h-184z" />
    <glyph glyph-name="l" unicode="l" horiz-adv-x="333" 
d="M69 0l153 722h188l-153 -722h-188z" />
    <glyph glyph-name="m" unicode="m" horiz-adv-x="1000" 
d="M61 0l82.002 388.002c1.33301 4 4.83301 22.667 10.5 56s9.16699 52.666 10.5 57.999h186l-16 -83c48.667 63.333 112 95 190 95c10.667 0 21.5 -0.833008 32.5 -2.5s24.833 -5.16699 41.5 -10.5s30.667 -14.833 42 -28.5s18.666 -30.834 21.999 -51.501
c51.333 62.667 117 94 197 94c71.333 0 118.666 -26 141.999 -78c12 -28.667 9.33301 -82.667 -8 -162l-58 -275h-188l60 284c3.33301 14 5.66602 24.667 6.99902 32s1.83301 16.833 1.5 28.5s-2.33301 20.5 -6 26.5s-9.83398 11.5 -18.501 16.5s-20.334 7.5 -35.001 7.5
c-32 0 -58.333 -14 -79 -42c-9.33301 -13.333 -17.666 -37 -24.999 -71l-60 -282h-188l61 286c2.66699 12.667 4.5 22.5 5.5 29.5s1.5 16.333 1.5 28s-1.66699 20.667 -5 27s-9.66602 12 -18.999 17s-21 7.5 -35 7.5c-53.333 0 -87.666 -36.333 -102.999 -109l-61 -286h-188
z" />
    <glyph glyph-name="n" unicode="n" 
d="M64 0l84 395.005l18 107h188l-15 -77c48 58.667 110 88 186 88c34.667 0 63.334 -5.33301 86.001 -16s38.5 -22.834 47.5 -36.501s14.333 -31.834 16 -54.501s1.5 -40.334 -0.5 -53.001s-5 -29 -9 -49l-65 -304h-188l61 288c2.66699 13.333 4.5 24.166 5.5 32.499
s0.666992 19.166 -1 32.499s-7.33398 23.5 -17.001 30.5s-23.5 10.5 -41.5 10.5c-56 0 -91.667 -35.333 -107 -106l-61 -288h-187z" />
    <glyph glyph-name="o" unicode="o" 
d="M92 253c16.667 80 55.167 144.333 115.5 193s138.5 73 234.5 73c86 0 151.167 -22 195.5 -66s57.5 -108.667 39.5 -194c-18 -84 -56.333 -150.333 -115 -199c-60 -48 -134.333 -72 -223 -72c-103.333 0 -175.333 24.667 -216 74c-38 45.333 -48.333 109 -31 191zM287 252
c-11.333 -51.333 -12 -91 -2 -119c10 -26.667 31.667 -40 65 -40c65.333 0 109.333 53 132 159c22.667 106.667 2 160 -62 160c-66 0 -110.333 -53.333 -133 -160z" />
    <glyph glyph-name="p" unicode="p" 
d="M163 502l183.998 -0.00292969l-13 -71c51.333 56 112 84 182 84c24 0 46.667 -3.83301 68 -11.5s41.666 -20.167 60.999 -37.5s32.333 -43.666 39 -78.999s4.66699 -77.333 -6 -126c-19.333 -91.333 -55.166 -159.333 -107.499 -204s-110.166 -67 -173.499 -67
c-27.333 0 -51.166 4.66699 -71.499 14s-34 17.833 -41 25.5s-14.833 17.834 -23.5 30.501l-53 -250h-188l129 610c2.66699 16 5 29.167 7 39.5s3.33301 18.833 4 25.5s1.66699 12.334 3 17.001zM297.998 252.997c-21.333 -100.667 -1.66602 -151 59.001 -151
c63.333 0 106.333 53.667 129 161c3.33301 15.333 5.5 30 6.5 44s0.333008 29.167 -2 45.5s-8.83301 29.5 -19.5 39.5s-25.334 15 -44.001 15c-64 0 -107 -51.333 -129 -154z" />
    <glyph glyph-name="q" unicode="q" 
d="M509 429l17.9961 73.002h182c-5.33301 -19.333 -10.666 -37.666 -15.999 -54.999c-1.33301 -4 -3.66602 -13 -6.99902 -27l-129 -610h-187l54 254c-10 -9.33301 -18.667 -16.833 -26 -22.5s-18.5 -13.167 -33.5 -22.5s-32.167 -16.5 -51.5 -21.5s-40.333 -7.5 -63 -7.5
c-60.667 0 -108 21.333 -142 64s-42 106.667 -24 192c16 75.333 48.333 138.666 97 189.999s108 77 178 77c24 0 45.333 -2.83301 64 -8.5s33.834 -13.834 45.501 -24.501s19.834 -19.334 24.501 -26.001s10 -15 16 -25zM335.996 98.002c20.667 0 39.333 5.67188 56 17.0049
s29.834 26.166 39.501 44.499s17 34.666 22 48.999s9.16699 29.166 12.5 44.499c21.333 100.667 0.666016 151 -62.001 151c-60.667 0 -102 -51.333 -124 -154c-3.33301 -15.333 -5.5 -30.333 -6.5 -45s-0.5 -30.834 1.5 -48.501s8.16699 -31.834 18.5 -42.501
s24.5 -16 42.5 -16z" />
    <glyph glyph-name="r" unicode="r" horiz-adv-x="444" 
d="M67 0l83.998 395.001l18 107h183l-19 -104c15.333 26 32.333 47.167 51 63.5s38.334 27.333 59.001 33s36.667 9.16699 48 10.5s25.333 1.66602 42 0.999023l-35 -161c-21.333 2 -34.333 3 -39 3c-87.333 0 -140.666 -45 -159.999 -135l-45 -213h-187z" />
    <glyph glyph-name="s" unicode="s" horiz-adv-x="556" 
d="M64 163l186.001 0.00195312c-4 -18.667 -4.66699 -33.667 -2 -45c4.66699 -20.667 20.667 -31 48 -31c19.333 0 34.833 5.16699 46.5 15.5s18.834 22.166 21.501 35.499c3.33301 16 0.166016 27.667 -9.50098 35s-26.167 14.333 -49.5 21l-96 29
c-76.667 20.667 -107.667 66 -93 136c5.33301 24 15.833 46.167 31.5 66.5s33.5 36.166 53.5 47.499c46.667 28.667 109 43 187 43c146 0 210.333 -56.333 193 -169h-178c4.66699 22.667 5.66699 39 3 49c-5.33301 18 -20.666 27 -45.999 27
c-16 0 -30.167 -3.66699 -42.5 -11s-19.833 -18.333 -22.5 -33c-3.33301 -13.333 -1.33301 -23.5 6 -30.5s18.666 -12.833 33.999 -17.5l126 -37c14 -4 26.167 -8.66699 36.5 -14s21 -13 32 -23s18.5 -23.5 22.5 -40.5s3.5 -37.167 -1.5 -60.5s-13.333 -44.333 -25 -63
s-24.334 -33.834 -38.001 -45.501s-29.834 -21.667 -48.501 -30s-35.167 -14.5 -49.5 -18.5s-30.666 -7 -48.999 -9s-31.5 -3.16699 -39.5 -3.5s-17.333 -0.5 -28 -0.5c-24.667 0 -46.5 0.833008 -65.5 2.5s-39.667 6 -62 13s-40.333 16.667 -54 29s-23.5 29.833 -29.5 52.5
s-5.33301 49.334 2 80.001z" />
    <glyph glyph-name="t" unicode="t" horiz-adv-x="444" 
d="M398 500h119.001l-25 -120h-121l-37 -174c-4 -19.333 -6.33301 -33 -7 -41s0.166016 -16.667 2.49902 -26s8.16602 -15.5 17.499 -18.5s23 -4.5 41 -4.5c16 0 31.667 1 47 3l-25 -118c-38.667 -6 -80 -9 -124 -9c-71.333 0 -116.666 11.5 -135.999 34.5
s-23.333 60.5 -12 112.5l51 241h-95l25 120h98l17 78l196 72z" />
    <glyph glyph-name="u" unicode="u" 
d="M171 502l187.001 0.000976562l-63 -293c-13.333 -65.333 5 -98 55 -98c52.667 0 86 33.333 100 100l62 291h188l-89 -415c-3.33301 -24.667 -8.33301 -53.667 -15 -87h-185l13 78c-30.667 -36 -60.334 -59.5 -89.001 -70.5s-58 -16.5 -88 -16.5c-33.333 0 -61 5 -83 15
s-37.5 22.167 -46.5 36.5s-14.667 32.833 -17 55.5s-2.5 42.667 -0.5 60s5.66699 37.666 11 60.999z" />
    <glyph glyph-name="v" unicode="v" horiz-adv-x="611" 
d="M200 0l-84 502h202l25 -352l182 352h177l-297 -502h-205z" />
    <glyph glyph-name="w" unicode="w" horiz-adv-x="944" 
d="M160 0l-46 502h192l6 -356l165 356h210l12 -354l165 354h168l-265 -502h-210l-18 350l-173 -350h-206z" />
    <glyph glyph-name="x" unicode="x" horiz-adv-x="611" 
d="M237 262l-98 240h219l31 -154l100 154h192l-205 -240l114 -262h-222l-39 186l-123 -186h-194z" />
    <glyph glyph-name="y" unicode="y" horiz-adv-x="611" 
d="M702 502l-420 -692h-175l108 174l-100 518h203l26 -349l183 349h175z" />
    <glyph glyph-name="z" unicode="z" horiz-adv-x="556" 
d="M40 0l27 127l295 253h-230l25 121h444l-26 -124l-299 -258h256l-25 -119h-467z" />
    <glyph glyph-name="braceleft" unicode="{" horiz-adv-x="333" 
d="M39 269l20 93.9941c78.667 11.333 126 54.333 142 129l4 23c6 28 11.667 50.333 17 67s15 36.667 29 60s31 41.833 51 55.5s47.833 26 83.5 37s77.5 17.833 125.5 20.5l-19 -90c-21.333 -1.33301 -40.166 -5.66602 -56.499 -12.999s-28.833 -15.166 -37.5 -23.499
s-16.5 -20 -23.5 -35s-11.667 -27 -14 -36l-9.5 -38.5l-4 -22c-7.33301 -32 -16.333 -57.833 -27 -77.5s-26 -38.167 -46 -55.5c-30.667 -28 -74 -44 -130 -48c18 -2.66699 31.833 -4.83398 41.5 -6.50098s21.667 -6 36 -13s25.833 -16.5 34.5 -28.5
c22 -27.333 26.667 -71.666 14 -132.999l-5 -22c-3.33301 -16.667 -5.83301 -29.5 -7.5 -38.5s-2.16699 -21.167 -1.5 -36.5s3.66699 -27.166 9 -35.499s14.5 -16.166 27.5 -23.499s30.167 -11.333 51.5 -12l-19 -90c-92 4.66699 -155.333 26 -190 64
c-14 16.667 -22.667 37 -26 61s0.666992 62.333 12 115l5 23c3.33301 16.667 5.16602 29.834 5.49902 39.501s-1.16699 21.334 -4.5 35.001s-12.333 25 -27 34s-35 15.833 -61 20.5z" />
    <glyph glyph-name="bar" unicode="|" horiz-adv-x="278" 
d="M227 750h142l-212 -1000h-142z" />
    <glyph glyph-name="braceright" unicode="}" horiz-adv-x="333" 
d="M428 363l-19.9971 -93.9951c-78 -11.333 -125 -54.333 -141 -129l-5 -23c-6 -28 -11.667 -50.333 -17 -67s-15 -36.667 -29 -60s-30.833 -41.833 -50.5 -55.5s-47.334 -26 -83.001 -37s-77.834 -17.833 -126.501 -20.5l19 90
c21.333 1.33301 40.166 5.66602 56.499 12.999s28.833 15.166 37.5 23.499s16.5 20 23.5 35s11.833 27 14.5 36s5.66699 21.833 9 38.5l5 22c6.66699 32 15.334 57.833 26.001 77.5s26 38.167 46 55.5c30.667 28 74 44 130 48c-18 2.66699 -31.833 4.83398 -41.5 6.50098
s-21.5 6 -35.5 13s-25.667 16.167 -35 27.5c-22 28 -26.333 72.667 -13 134l4 22c4 16.667 6.66699 29.5 8 38.5s1.66602 21.167 0.999023 36.5s-3.66699 27.166 -9 35.499s-14.5 16.166 -27.5 23.499s-30.167 11.333 -51.5 12l19 90c92 -4.66699 155.333 -26 190 -64
c14.667 -16.667 23.5 -37 26.5 -61s-1.16699 -62.333 -12.5 -115l-4 -23c-4 -16.667 -6.16699 -29.834 -6.5 -39.501s1.16699 -21.334 4.5 -35.001s12.5 -25 27.5 -34s35.167 -15.833 60.5 -20.5z" />
    <glyph glyph-name="asciitilde" unicode="~" horiz-adv-x="660" 
d="M180 172h-91.0029c15.333 59.333 41.833 107.333 79.5 144s76.834 55 117.501 55c18.667 0 64.667 -12 138 -36c50 -16 83.333 -24 100 -24c14.667 0 27.334 3.83301 38.001 11.5s17.667 14.5 21 20.5s7 14.333 11 25h92c-15.333 -54 -40.166 -101 -74.499 -141
s-75.833 -60 -124.5 -60c-24 0 -80.333 15.333 -169 46c-40 10.667 -63.333 16 -70 16c-31.333 0 -54 -19 -68 -57z" />
    <glyph glyph-name="uni00A0" unicode="&#xa0;" horiz-adv-x="333" 
 />
    <glyph glyph-name="exclamdown" unicode="&#xa1;" horiz-adv-x="444" 
d="M219 324h144l-71 -507h-217zM393 389h-180l32 150h180z" />
    <glyph glyph-name="cent" unicode="&#xa2;" 
d="M439 517l64.999 127.001h139l-71 -146c34.667 -15.333 61.5 -38.666 80.5 -69.999s24.5 -66 16.5 -104h-195c5.33301 18 4 33 -4 45s-24.667 18 -50 18c-53.333 0 -89.666 -45.333 -108.999 -136s-2.33301 -136 51 -136c14 0 26.333 2.16699 37 6.5
s19.334 10.666 26.001 18.999s11.5 16.333 14.5 24s6.5 17.5 10.5 29.5h195c-16.667 -66 -56.334 -119 -119.001 -159c-54.667 -35.333 -116.667 -52 -186 -50l-74 -141h-139l81 169c-46.667 24 -76.5 56.333 -89.5 97s-13.167 91 -0.5 151
c34 157.333 141 242.666 321 255.999z" />
    <glyph glyph-name="sterling" unicode="&#xa3;" 
d="M34 0l25.0059 116.992h74l47 220h-96l24 114h96c4 20.667 7.66699 37.334 11 50.001s9.16602 30.334 17.499 53.001s17.333 41.334 27 56.001s23.167 31.167 40.5 49.5s36.666 32.833 57.999 43.5s47.833 19.834 79.5 27.501s66.5 11.5 104.5 11.5
c35.333 0 66.333 -3.16699 93 -9.5s48 -14 64 -23s29 -20.833 39 -35.5s16.667 -28 20 -40s5 -26.5 5 -43.5s-0.5 -29.833 -1.5 -38.5s-3.16699 -19.667 -6.5 -33h-185c2.66699 10.667 4.5 19.167 5.5 25.5s1.33301 15.5 1 27.5s-2.33301 21.333 -6 28
s-10.334 12.834 -20.001 18.501s-22.167 8.5 -37.5 8.5c-16.667 0 -31.334 -3.5 -44.001 -10.5s-22.834 -15.167 -30.501 -24.5s-14.834 -23.166 -21.501 -41.499s-11.5 -33.666 -14.5 -45.999s-6.83301 -30.166 -11.5 -53.499h145l-24 -114h-145l-47 -220h316l-25 -117
h-577z" />
    <glyph glyph-name="currency" unicode="&#xa4;" horiz-adv-x="660" 
d="M106 172l80.999 67.001c-11.333 37.333 -13.333 74 -6 110c7.33301 35.333 25 72.333 53 111l-53 67l102 84l53 -67c41.333 19.333 80 29 116 29c35.333 0 70.333 -9.66699 105 -29l80 67l66 -84l-80 -67c10.667 -38.667 12.334 -75.667 5.00098 -111
c-8 -38.667 -25.333 -75.334 -52 -110.001l53 -67l-102 -84l-53 67c-41.333 -19.333 -80 -29 -116 -29c-36.667 0 -71.667 9.66699 -105 29l-81 -67zM424.999 448.001c-27.333 0 -52.6699 -9.66699 -76.0029 -29s-38 -42.333 -44 -69
c-5.33301 -27.333 -0.5 -50.666 14.5 -69.999s36.167 -29 63.5 -29s52.833 9.66699 76.5 29s38.334 42.666 44.001 69.999s0.833984 50.5 -14.499 69.5s-36.666 28.5 -63.999 28.5z" />
    <glyph glyph-name="yen" unicode="&#xa5;" 
d="M425 0h-190l26 120h-181l27 130h179l-18 54h-149l27 130h89l-79 258h201l62 -273l185 273h201l-194 -258h94l-27 -130h-149l-42 -54h179l-27 -130h-188z" />
    <glyph glyph-name="brokenbar" unicode="&#xa6;" horiz-adv-x="278" 
d="M211 675h142l-74 -350h-142zM105 175h142l-74 -350h-142z" />
    <glyph glyph-name="section" unicode="&#xa7;" 
d="M122 2l24.002 112.995c44 -16 89.333 -24 136 -24c68.667 0 106.334 15 113.001 45c2 10.667 -1.16699 19.667 -9.5 27s-23.166 15 -44.499 23l-90 34c-40 14.667 -66 32.334 -78 53.001s-15 45.667 -9 75c6.66699 31.333 20.834 58.333 42.501 81s54.5 44 98.5 64
c-52.667 22.667 -73.334 61.334 -62.001 116.001c5.33301 24.667 16 45.834 32 63.501s32.5 30.834 49.5 39.501s37.333 15.5 61 20.5s42.167 7.83301 55.5 8.5s27.666 1 42.999 1c32 0 89.333 -5.33301 172 -16l-24 -114c-40 14.667 -80.333 22 -121 22
c-48 0 -74.667 -11.667 -80 -35c-2 -10.667 0.666992 -19.167 8 -25.5s20 -12.833 38 -19.5l104 -39c64 -23.333 89 -68.666 75 -135.999c-12.667 -58 -53.667 -103 -123 -135c15.333 -9.33301 27.166 -17.666 35.499 -24.999s15.166 -18.833 20.499 -34.5
s6 -33.834 2 -54.501c-5.33301 -24 -14.5 -45 -27.5 -63s-29 -32.167 -48 -42.5s-37.167 -18.833 -54.5 -25.5s-36.833 -11.167 -58.5 -13.5s-37.334 -3.83301 -47.001 -4.5s-20.5 -1 -32.5 -1c-81.333 0 -148.333 7.33301 -201 22zM432.002 281.995
c30 28.667 47.668 54.9971 53.001 78.9971c2 11.333 2 21.333 0 30s-7.66699 16.834 -17 24.501s-17.666 13.834 -24.999 18.501s-19.333 11.334 -36 20.001c-38 -27.333 -59.333 -52.333 -64 -75c-2.66699 -12.667 -2.33398 -24 0.999023 -34s10.166 -18.833 20.499 -26.5
s20.333 -14 30 -19s22.167 -10.833 37.5 -17.5z" />
    <glyph glyph-name="dieresis" unicode="&#xa8;" horiz-adv-x="333" 
d="M335 581l31 145h171l-31 -145h-171zM72 581l31 145h171l-31 -145h-171z" />
    <glyph glyph-name="copyright" unicode="&#xa9;" horiz-adv-x="800" 
d="M572 742c104 0 185.333 -36.833 244 -110.5s76.667 -163.167 54 -268.5c-22 -104.667 -78 -194.167 -168 -268.5s-187.333 -111.5 -292 -111.5s-186.167 37.167 -244.5 111.5s-76.5 163.833 -54.5 268.5c22.667 105.333 79.167 194.833 169.5 268.5
s187.5 110.5 291.5 110.5zM558 677c-86.667 0 -167.167 -30.5 -241.5 -91.5s-120.833 -135.167 -139.5 -222.5c-18 -86.667 -3 -160.667 45 -222s115.333 -92 202 -92s167.167 30.833 241.5 92.5s120.5 135.5 138.5 221.5c18.667 86.667 4 160.667 -44 222
s-115.333 92 -202 92zM683 442l-111.002 -0.000976562c3.33301 39.333 -13.667 59 -51 59c-56.667 0 -95 -48.333 -115 -145c-19.333 -90.667 0 -136 58 -136c36.667 0 61.667 21.333 75 64h112c-10.667 -51.333 -34.667 -88.666 -72 -111.999s-81.666 -35 -132.999 -35
c-66.667 0 -112 19 -136 57c-24.667 40 -29.667 94.667 -15 164s42.667 124.333 84 165c42.667 42 96.334 63 161.001 63s108 -17.333 130 -52c14.667 -23.333 19 -54 13 -92z" />
    <glyph glyph-name="ordfeminine" unicode="&#xaa;" horiz-adv-x="367" 
d="M249 524c-2 -11.333 -0.168945 -20.166 5.49805 -26.499s14.5 -9.5 26.5 -9.5c9.33301 0 17.333 1.83301 24 5.5s11.834 7.16699 15.501 10.5s7.16699 9.83301 10.5 19.5s5.33301 15.667 6 18s2 9.16602 4 20.499c-21.333 0 -39.666 -2 -54.999 -6
c-20.667 -3.33301 -33 -14 -37 -32zM316.998 427l1.00195 25.001h-2c-6.66699 -8 -18.5 -15.667 -35.5 -23s-34.5 -11 -52.5 -11c-38.667 0 -68.5 8.5 -89.5 25.5s-27.833 41.833 -20.5 74.5c8 34 32.5 61.5 73.5 82.5s83.167 31.5 126.5 31.5h39
c5.33301 23.333 -1.66699 35 -21 35c-12.667 0 -23.5 -2.66699 -32.5 -8s-13.5 -10.333 -13.5 -15h-117c7.33301 34 31.666 59 72.999 75c30 12 68.667 18 116 18c38.667 0 71.167 -7.83301 97.5 -23.5s36.166 -38.834 29.499 -69.501l-33 -155c-2 -8 -4 -28.667 -6 -62
h-133z" />
    <glyph glyph-name="guillemotleft" unicode="&#xab;" 
d="M276 449h155l-161 -196l79 -194h-154l-84 196zM544 449h155l-160 -196l78 -194h-154l-84 196z" />
    <glyph glyph-name="logicalnot" unicode="&#xac;" horiz-adv-x="660" 
d="M128 317l30 141h538l-80 -378h-146l50 237h-392z" />
    <glyph glyph-name="uni00AD" unicode="&#xad;" horiz-adv-x="333" 
d="M91 323h284l-26 -119h-284z" />
    <glyph glyph-name="registered" unicode="&#xae;" horiz-adv-x="800" 
d="M557 742c104 0 185.499 -36.833 244.499 -110.5s77.167 -163.5 54.5 -269.5c-22 -104 -78 -193 -168 -267s-187.333 -111 -292 -111s-186 37 -244 111s-76 163 -54 267c22.667 106 78.834 195.833 168.501 269.5s186.5 110.5 290.5 110.5zM542.999 677
c-85.333 0 -165.164 -30.498 -239.497 -91.498s-120.833 -135.5 -139.5 -223.5c-18 -86 -2.83301 -159.5 45.5 -220.5s115.166 -91.5 200.499 -91.5c87.333 0 168.166 30.667 242.499 92s120.5 134.666 138.5 219.999c18.667 87.333 3.66699 161.666 -45 222.999
s-116.334 92 -203.001 92zM257.001 152.002l90.001 420.003h196c19.333 0 34 -0.333008 44 -1s23 -2.83398 39 -6.50098s27.667 -9 35 -16s13 -17.833 17 -32.5s3.66699 -32.667 -1 -54c-12.667 -58.667 -53.667 -92 -123 -100v-2
c14.667 -0.666992 27.167 -2.83398 37.5 -6.50098s18 -7.33398 23 -11.001s8.5 -10.5 10.5 -20.5s3 -16.833 3 -20.5v-25.5c-4.66699 -68 -6.33398 -109.333 -5.00098 -124h-126c0 24 2.33301 56.667 7 98c1.33301 14.667 2 25 2 31s-1.33301 12.333 -4 19s-7.5 11 -14.5 13
s-16.833 3 -29.5 3h-48l-35 -164h-118zM448.002 496.005l-21.999 -104h44c17.333 0 30.5 0.5 39.5 1.5s18.667 5.66699 29 14s17.166 20.5 20.499 36.5s1.33301 28.167 -6 36.5s-15.333 13 -24 14s-21 1.5 -37 1.5h-44z" />
    <glyph glyph-name="macron" unicode="&#xaf;" horiz-adv-x="333" 
d="M104 614l16 76h382l-16 -76h-382z" />
    <glyph glyph-name="degree" unicode="&#xb0;" horiz-adv-x="400" 
d="M468 557c-8.66699 -41.333 -30.6699 -76.666 -66.0029 -105.999s-73.666 -44 -114.999 -44s-73.666 14.667 -96.999 44s-30.666 64.666 -21.999 105.999c8 40.667 30 75.834 66 105.501s74.667 44.5 116 44.5s73.5 -14.833 96.5 -44.5s30.167 -64.834 21.5 -105.501z
M247.997 554c-4 -20.667 -1.00195 -37 8.99805 -49s25.333 -18 46 -18s38.834 6 54.501 18s25.834 28.333 30.501 49c4 20 0.5 37.167 -10.5 51.5s-26.5 21.5 -46.5 21.5s-38 -7.16699 -54 -21.5s-25.667 -31.5 -29 -51.5z" />
    <glyph glyph-name="plusminus" unicode="&#xb1;" horiz-adv-x="660" 
d="M288 136l31 147h-198l30 140h198l33 155h143l-33 -155h197l-30 -140h-197l-31 -147h-143zM52 -40l30 141h538l-30 -141h-538z" />
    <glyph glyph-name="uni00B2" unicode="&#xb2;" horiz-adv-x="400" 
d="M255 366l213.998 -0.000976562l-18 -83h-368l17 78c12 10.667 42.167 31.334 90.5 62.001s90.5 60.5 126.5 89.5s57 54.167 63 75.5c4 12 2.66699 21 -4 27s-18.667 9 -36 9c-13.333 0 -25.666 -4.33301 -36.999 -13s-18 -18 -20 -28h-127c11.333 44 36.333 75.667 75 95
s84.667 29 138 29c47.333 0 85.833 -9 115.5 -27s40.167 -46.667 31.5 -86c-2.66699 -14.667 -11.167 -31 -25.5 -49s-30.666 -34.833 -48.999 -50.5s-38.5 -31.5 -60.5 -47.5s-41.667 -29.333 -59 -40l-46 -28l-21 -12v-1z" />
    <glyph glyph-name="uni00B3" unicode="&#xb3;" horiz-adv-x="400" 
d="M245 456l18.001 82.998h17h18c3.33301 0 8.83301 0.166992 16.5 0.5s13.167 1 16.5 2l14 4c6 1.66699 10.833 3.83398 14.5 6.50098s7.5 6 11.5 10s7.16699 8.66699 9.5 14s4.16602 11.333 5.49902 18c2 9.33301 -1.33301 16.666 -10 21.999s-20 8 -34 8
c-13.333 0 -25.833 -3.66699 -37.5 -11s-18.5 -15.666 -20.5 -24.999h-132c9.33301 40 34.166 69.833 74.499 89.5s85.166 29.5 134.499 29.5c20.667 0 40.5 -1.5 59.5 -4.5s37.667 -8.16699 56 -15.5s31.666 -18.333 39.999 -33s10.5 -32.334 6.5 -53.001
c-5.33301 -25.333 -20.166 -47.166 -44.499 -65.499s-51.166 -29.5 -80.499 -33.5l-1 -2c33.333 -3.33301 58.5 -14.166 75.5 -32.499s22.167 -42.833 15.5 -73.5c-8.66699 -41.333 -34.834 -71.666 -78.501 -90.999s-90.167 -29 -139.5 -29
c-120.667 0 -176.667 43 -168 129h131c-2.66699 -12.667 0 -24.334 8 -35.001c6.66699 -7.33301 20.667 -11 42 -11c41.333 0 65.333 15.333 72 46c1.33301 8.66699 1.33301 16.167 0 22.5s-4.33301 11.5 -9 15.5s-9.16699 7.16699 -13.5 9.5s-11.166 3.83301 -20.499 4.5
s-16.666 1.16699 -21.999 1.5s-13.333 0.333008 -24 0s-17.667 -0.5 -21 -0.5z" />
    <glyph glyph-name="acute" unicode="&#xb4;" horiz-adv-x="333" 
d="M538 726l-214 -145h-132l142 145h204z" />
    <glyph glyph-name="uni00B5" unicode="&#xb5;" 
d="M49 -213l152 715.004h140l-53 -247c-5.33301 -26 -8.83301 -46.667 -10.5 -62s-1.16699 -30.333 1.5 -45s9.16699 -25.334 19.5 -32.001s25.166 -10 44.499 -10c20.667 0 38.5 4 53.5 12s26.833 20 35.5 36s15.167 30.667 19.5 44s8.83301 30.666 13.5 51.999l54 252h139
l-107 -502h-116l12 57c-11.333 -12.667 -20.666 -22.334 -27.999 -29.001s-20 -14.334 -38 -23.001s-37 -13 -57 -13c-40.667 0 -69.667 16 -87 48l-54 -253h-134z" />
    <glyph glyph-name="paragraph" unicode="&#xb6;" horiz-adv-x="850" 
d="M856 610h-49.999l-168 -788h-136l168 788h-89l-168 -788h-136l90 422c-54 6.66699 -93.667 24 -119 52c-34.667 41.333 -44.334 98.666 -29.001 171.999c6.66699 30 17.5 59.167 32.5 87.5s35 55.333 60 81s57 46.334 96 62.001s82.5 23.5 130.5 23.5h341z" />
    <glyph glyph-name="periodcentered" unicode="&#xb7;" horiz-adv-x="333" 
d="M115 204l32 149h176l-32 -149h-176z" />
    <glyph glyph-name="cedilla" unicode="&#xb8;" horiz-adv-x="333" 
d="M141 9h49.002l-53 -71c14 2 25.333 3 34 3c32 0 54.833 -7.33301 68.5 -22s18.5 -32 14.5 -52c-4.66699 -22.667 -19.334 -42.5 -44.001 -59.5s-61.334 -25.5 -110.001 -25.5c-43.333 0 -79.666 6.66699 -108.999 20l22 45c29.333 -14.667 59 -22 89 -22
c35.333 0 55.666 13 60.999 39c2.66699 12 -0.333008 21.167 -9 27.5s-19.667 9.5 -33 9.5c-12 0 -25.333 -3 -40 -9l-19 20z" />
    <glyph glyph-name="uni00B9" unicode="&#xb9;" horiz-adv-x="400" 
d="M370 283h-130l63 297c-44 -24 -84.333 -41.333 -121 -52l21 97c52.667 14.667 100.667 37 144 67h110z" />
    <glyph glyph-name="ordmasculine" unicode="&#xba;" horiz-adv-x="400" 
d="M383 578c12.667 59.333 -0.666992 89 -40 89c-40 0 -66.333 -29.667 -79 -89c-12.667 -60 1 -90 41 -90c39.333 0 65.333 30 78 90zM357.999 737c54.667 0 97.001 -13.333 127.001 -40s39.333 -66.334 28 -119.001s-37.666 -92.5 -78.999 -119.5
s-89.333 -40.5 -144 -40.5c-55.333 0 -98 13.5 -128 40.5s-39.333 66.833 -28 119.5s37.666 92.334 78.999 119.001s89.666 40 144.999 40z" />
    <glyph glyph-name="guillemotright" unicode="&#xbb;" 
d="M225 59h-155l160 196l-78 194h154l84 -196zM493 59h-155l160 196l-78 194h154l84 -196z" />
    <glyph glyph-name="onequarter" unicode="&#xbc;" horiz-adv-x="1000" 
d="M644 163h103l30 144h-3zM712 0l17 80h-215l18 83l244 252h154l-53 -252h63l-18 -83h-63l-17 -80h-130zM345 0h-109l515 707h109zM395 283h-130l63 297c-44 -24 -84.333 -41.333 -121 -52l21 97c52.667 14.667 100.667 37 144 67h110z" />
    <glyph glyph-name="onehalf" unicode="&#xbd;" horiz-adv-x="1000" 
d="M330 0h-109l515 707h109zM390 283h-130l63 297c-44 -24 -84.333 -41.333 -121 -52l21 97c52.667 14.667 100.667 37 144 67h110zM714 83l214 -0.000976562l-18 -83h-368l17 78c12 10.667 42.167 31.334 90.5 62.001s90.5 60.5 126.5 89.5s57 54.167 63 75.5
c4 12 2.5 21 -4.5 27s-19.167 9 -36.5 9c-13.333 0 -25.5 -4.33301 -36.5 -13s-17.5 -18 -19.5 -28h-127c11.333 44 36.333 75.667 75 95s84.667 29 138 29c47.333 0 85.833 -9 115.5 -27s40.167 -46.667 31.5 -86c-3.33301 -14.667 -12 -31 -26 -49
s-30.167 -34.833 -48.5 -50.5s-38.5 -31.5 -60.5 -47.5s-41.667 -29.333 -59 -40l-47 -28l-20 -12v-1z" />
    <glyph glyph-name="threequarters" unicode="&#xbe;" horiz-adv-x="1000" 
d="M406 0h-109l515 707h109zM701 163h113l32 154h-3zM599 163l244 252h154l-53 -252h63l-18 -83h-63l-17 -80h-130l17 80h-215zM257 456l18.001 82.998h17h18c3.33301 0 8.83301 0.166992 16.5 0.5s13.167 1 16.5 2l14 4c6 1.66699 10.833 3.83398 14.5 6.50098
s7.5 6 11.5 10s7.16699 8.66699 9.5 14s4.16602 11.333 5.49902 18c2 9.33301 -1.33301 16.666 -10 21.999s-20 8 -34 8c-13.333 0 -25.833 -3.66699 -37.5 -11s-18.5 -15.666 -20.5 -24.999h-132c9.33301 40 34.166 69.833 74.499 89.5s85.166 29.5 134.499 29.5
c20.667 0 40.5 -1.5 59.5 -4.5s37.667 -8.16699 56 -15.5s31.666 -18.333 39.999 -33s10.5 -32.334 6.5 -53.001c-5.33301 -25.333 -20.166 -47.166 -44.499 -65.499s-51.166 -29.5 -80.499 -33.5l-1 -2c33.333 -3.33301 58.5 -14.166 75.5 -32.499
s22.167 -42.833 15.5 -73.5c-8.66699 -41.333 -34.834 -71.666 -78.501 -90.999s-90.167 -29 -139.5 -29c-120.667 0 -176.667 43 -168 129h131c-2.66699 -12.667 0 -24.334 8 -35.001c6.66699 -7.33301 20.667 -11 42 -11c41.333 0 65.333 15.333 72 46
c1.33301 8.66699 1.33301 16.167 0 22.5s-4.33301 11.5 -9 15.5s-9.16699 7.16699 -13.5 9.5s-11.166 3.83301 -20.499 4.5s-16.666 1.16699 -21.999 1.5s-13.333 0.333008 -24 0s-17.667 -0.5 -21 -0.5z" />
    <glyph glyph-name="questiondown" unicode="&#xbf;" horiz-adv-x="556" 
d="M316 349h160.001c-3.33301 -14.667 -6.66602 -30.834 -9.99902 -48.501l-7 -37.5c-1.33301 -7.33301 -4.66602 -16.5 -9.99902 -27.5s-13.166 -21.667 -23.499 -32s-24.833 -23.166 -43.5 -38.499c-0.666992 -0.666992 -4.33398 -3.66699 -11.001 -9
s-11.334 -9.16602 -14.001 -11.499l-14.5 -12.5c-7 -6 -12.5 -11 -16.5 -15l-16 -15.5c-6.66699 -6.33301 -12.167 -11.833 -16.5 -16.5s-9 -10.167 -14 -16.5s-9.33301 -12.166 -13 -17.499s-6.66699 -10.833 -9 -16.5s-4.16602 -11.167 -5.49902 -16.5
c-4.66699 -21.333 -1.16699 -38.833 10.5 -52.5s26.167 -22.667 43.5 -27s36.666 -6.5 57.999 -6.5c40.667 0 77.334 5 110.001 15l-28 -130c-54 -10 -108.333 -15 -163 -15c-33.333 0 -64.5 2.66699 -93.5 8s-57.333 14.5 -85 27.5s-47.834 33 -60.501 60s-15 59.5 -7 97.5
c2.66699 11.333 6.5 22.5 11.5 33.5l12.5 27.5c3.33301 7.33301 10.333 16.166 21 26.499s17.834 17.666 21.501 21.999s12.667 11.666 27 21.999s22.666 16.5 24.999 18.5s12.666 8.83301 30.999 20.5s27.833 17.834 28.5 18.501c31.333 20 52.666 36.667 63.999 50
s20.333 35.333 27 66zM495.001 389h-180l32 150h180z" />
    <glyph glyph-name="Agrave" unicode="&#xc0;" horiz-adv-x="833" 
d="M8 0l438 722h244l132 -722h-226l-19 145h-289l-80 -145h-200zM363 278h196l-29 303h-3zM556 801l-155 145h208l76 -145h-129z" />
    <glyph glyph-name="Aacute" unicode="&#xc1;" horiz-adv-x="833" 
d="M8 0l438 722h244l132 -722h-226l-19 145h-289l-80 -145h-200zM363 278h196l-29 303h-3zM817 946l-214 -145h-132l142 145h204z" />
    <glyph glyph-name="Acircumflex" unicode="&#xc2;" horiz-adv-x="833" 
d="M8 0l438 722h244l132 -722h-226l-19 145h-289l-80 -145h-200zM363 278h196l-29 303h-3zM529 946h169l89 -145h-130l-57 77l-91 -77h-130z" />
    <glyph glyph-name="Atilde" unicode="&#xc3;" horiz-adv-x="833" 
d="M8 0l438 722h244l132 -722h-226l-19 145h-289l-80 -145h-200zM363 278h196l-29 303h-3zM430 801h-77.998c10.667 39.333 32 73 64 101c34 30 71.667 45 113 45c17.333 0 40.666 -4.66699 69.999 -14l73 -22c12 -4 21.667 -6 29 -6c19.333 0 33.333 13 42 39h81
c-12 -40 -34.333 -74 -67 -102s-67.334 -42 -104.001 -42c-12.667 0 -28.667 3 -48 9l-77 24c-17.333 5.33301 -31 8 -41 8c-25.333 0 -44.333 -13.333 -57 -40z" />
    <glyph glyph-name="Adieresis" unicode="&#xc4;" horiz-adv-x="833" 
d="M8 0l438 722h244l132 -722h-226l-19 145h-289l-80 -145h-200zM363 278h196l-29 303h-3zM632 801l31 145h171l-31 -145h-171zM369 801l31 145h171l-31 -145h-171z" />
    <glyph glyph-name="Aring" unicode="&#xc5;" horiz-adv-x="833" 
d="M8 0l438 722h244l132 -722h-226l-19 145h-289l-80 -145h-200zM363 278h196l-29 303h-3zM715 873c-6.66699 -31.333 -23.167 -57.833 -49.5 -79.5s-55.166 -32.5 -86.499 -32.5c-30.667 0 -54.667 11 -72 33s-22.666 48.333 -15.999 79c6.66699 31.333 23.167 58 49.5 80
s55.166 33 86.499 33c30.667 0 54.667 -11 72 -33s22.666 -48.667 15.999 -80zM655.5 873c3 14.667 0.500977 27.332 -7.49902 37.999s-19.333 16 -34 16s-28.334 -5.16699 -41.001 -15.5s-20.334 -23.166 -23.001 -38.499c-3.33301 -14.667 -1 -27.167 7 -37.5
s19.333 -15.5 34 -15.5s28.334 5.16699 41.001 15.5s20.5 22.833 23.5 37.5z" />
    <glyph glyph-name="AE" unicode="&#xc6;" horiz-adv-x="1000" 
d="M502 0l14 143h-226l-85 -143h-198l470 722h628l-29 -140h-318l-16 -149h273l-30 -140h-258l-17 -153h272l-30 -140h-450zM562 597l-191 -314h162l34 314h-5z" />
    <glyph glyph-name="Ccedilla" unicode="&#xc7;" horiz-adv-x="778" 
d="M577 231l208.006 0.00195312c-8 -39.333 -22.167 -73.833 -42.5 -103.5s-42.833 -53.167 -67.5 -70.5s-53 -31.333 -85 -42s-61.667 -18 -89 -22s-56 -6.33301 -86 -7l-36 -48c14 2 25.333 3 34 3c32 0 54.833 -7.16699 68.5 -21.5s18.5 -31.833 14.5 -52.5
c-4.66699 -22 -19.334 -41.667 -44.001 -59s-61 -26 -109 -26c-44 0 -80.667 6.66699 -110 20l22 45c29.333 -14.667 59 -22 89 -22c35.333 0 55.666 13 60.999 39c2.66699 12 -0.333008 21.167 -9 27.5s-19.667 9.5 -33 9.5c-12 0 -25.333 -3 -40 -9l-19 20l61 76
c-70.667 5.33301 -126 22.333 -166 51c-84.667 61.333 -111 167 -79 317c24 114.667 73.667 206.334 149 275.001c77.333 70.667 176.333 106 297 106c119.333 0 200.666 -29.333 243.999 -88c29.333 -40 38.333 -91.333 27 -154h-206c3.33301 34.667 -4 60 -22 76
s-42.667 24 -74 24c-105.333 0 -175 -81 -209 -243c-2.66699 -12 -4.66699 -22.833 -6 -32.5s-2.83301 -24.5 -4.5 -44.5s-0.833984 -37.667 2.49902 -53s8.66602 -30.833 15.999 -46.5s19.666 -27.834 36.999 -36.501s38.333 -13 63 -13s46.334 3.83301 65.001 11.5
s33.167 18.167 43.5 31.5s17.666 24.166 21.999 32.499s8.5 18.166 12.5 29.499z" />
    <glyph glyph-name="Egrave" unicode="&#xc8;" 
d="M69 0l153 720h542l-29 -138h-344l-32 -150h324l-30 -138h-324l-32 -154h352l-30 -140h-550zM473 801l-155 145h208l76 -145h-129z" />
    <glyph glyph-name="Eacute" unicode="&#xc9;" 
d="M69 0l153 720h542l-29 -138h-344l-32 -150h324l-30 -138h-324l-32 -154h352l-30 -140h-550zM752 946l-214 -145h-132l142 145h204z" />
    <glyph glyph-name="Ecircumflex" unicode="&#xca;" 
d="M69 0l153 720h542l-29 -138h-344l-32 -150h324l-30 -138h-324l-32 -154h352l-30 -140h-550zM446 946h169l89 -145h-130l-57 77l-91 -77h-130z" />
    <glyph glyph-name="Edieresis" unicode="&#xcb;" 
d="M69 0l153 720h542l-29 -138h-344l-32 -150h324l-30 -138h-324l-32 -154h352l-30 -140h-550zM549 801l31 145h171l-31 -145h-171zM286 801l31 145h171l-31 -145h-171z" />
    <glyph glyph-name="Igrave" unicode="&#xcc;" horiz-adv-x="333" 
d="M60 0l153 722h206l-153 -722h-206zM306 801l-155 145h208l76 -145h-129z" />
    <glyph glyph-name="Iacute" unicode="&#xcd;" horiz-adv-x="333" 
d="M60 0l153 722h206l-153 -722h-206zM573 946l-214 -145h-132l142 145h204z" />
    <glyph glyph-name="Icircumflex" unicode="&#xce;" horiz-adv-x="333" 
d="M60 0l153 722h206l-153 -722h-206zM279 946h169l89 -145h-130l-57 77l-91 -77h-130z" />
    <glyph glyph-name="Idieresis" unicode="&#xcf;" horiz-adv-x="333" 
d="M60 0l153 722h206l-153 -722h-206zM382 801l31 145h171l-31 -145h-171zM119 801l31 145h171l-31 -145h-171z" />
    <glyph glyph-name="Eth" unicode="&#xd0;" horiz-adv-x="833" 
d="M67 0l74 350h-62l19 86h62l60 286h305c131.333 0 226.666 -28.333 285.999 -85s75.5 -148.667 48.5 -276s-82.167 -219.333 -165.5 -276s-190.666 -85 -321.999 -85h-305zM341 350l-44 -210h94c58.667 0 112.667 19.167 162 57.5s81.5 92.833 96.5 163.5
s6 125.167 -27 163.5s-78.833 57.5 -137.5 57.5h-94l-31 -146h157l-19 -86h-157z" />
    <glyph glyph-name="Ntilde" unicode="&#xd1;" horiz-adv-x="833" 
d="M67 0l153 722h276l130 -538l112 538h175l-153 -722h-270l-130 561l-117 -561h-176zM442 801h-77.998c10.667 39.333 32 73 64 101c34 30 71.667 45 113 45c17.333 0 40.666 -4.66699 69.999 -14l73 -22c12 -4 21.667 -6 29 -6c19.333 0 33.333 13 42 39h81
c-12 -40 -34.333 -74 -67 -102s-67.334 -42 -104.001 -42c-12.667 0 -28.667 3 -48 9l-77 24c-17.333 5.33301 -31 8 -41 8c-25.333 0 -44.333 -13.333 -57 -40z" />
    <glyph glyph-name="Ograve" unicode="&#xd2;" horiz-adv-x="833" 
d="M116 358c3.33301 16.667 8 34.3281 14 52.9951s15 42.167 27 70.5s28.333 56.833 49 85.5s43.667 53.667 69 75c80.667 66.667 182 100 304 100c55.333 0 103 -7.83301 143 -23.5s70.833 -35.834 92.5 -60.501s37.5 -54.167 47.5 -88.5s14.667 -68.666 14 -102.999
s-5 -70.166 -13 -107.499c-11.333 -55.333 -29.5 -105.166 -54.5 -149.499s-52.5 -80.333 -82.5 -108s-63.833 -50.667 -101.5 -69s-74.167 -31.166 -109.5 -38.499s-71.333 -11 -108 -11c-50 0 -94.833 7.16699 -134.5 21.5s-74.167 35.833 -103.5 64.5
s-49 67.834 -59 117.501s-8 106.834 6 171.501zM322 358.994c-32 -152.667 7.66602 -229 118.999 -229s183.333 77.333 216 232c16.667 77.333 14.334 138.333 -6.99902 183c-18 34.667 -54.333 52 -109 52c-112 0 -185 -79.333 -219 -238zM555.999 800.994l-155 145h208
l76 -145h-129z" />
    <glyph glyph-name="Oacute" unicode="&#xd3;" horiz-adv-x="833" 
d="M116 358c3.33301 16.667 8 34.3281 14 52.9951s15 42.167 27 70.5s28.333 56.833 49 85.5s43.667 53.667 69 75c80.667 66.667 182 100 304 100c55.333 0 103 -7.83301 143 -23.5s70.833 -35.834 92.5 -60.501s37.5 -54.167 47.5 -88.5s14.667 -68.666 14 -102.999
s-5 -70.166 -13 -107.499c-11.333 -55.333 -29.5 -105.166 -54.5 -149.499s-52.5 -80.333 -82.5 -108s-63.833 -50.667 -101.5 -69s-74.167 -31.166 -109.5 -38.499s-71.333 -11 -108 -11c-50 0 -94.833 7.16699 -134.5 21.5s-74.167 35.833 -103.5 64.5
s-49 67.834 -59 117.501s-8 106.834 6 171.501zM322 358.994c-32 -152.667 7.66602 -229 118.999 -229s183.333 77.333 216 232c16.667 77.333 14.334 138.333 -6.99902 183c-18 34.667 -54.333 52 -109 52c-112 0 -185 -79.333 -219 -238zM834.999 945.994l-214 -145h-132
l142 145h204z" />
    <glyph glyph-name="Ocircumflex" unicode="&#xd4;" horiz-adv-x="833" 
d="M116 358c3.33301 16.667 8 34.3281 14 52.9951s15 42.167 27 70.5s28.333 56.833 49 85.5s43.667 53.667 69 75c80.667 66.667 182 100 304 100c55.333 0 103 -7.83301 143 -23.5s70.833 -35.834 92.5 -60.501s37.5 -54.167 47.5 -88.5s14.667 -68.666 14 -102.999
s-5 -70.166 -13 -107.499c-11.333 -55.333 -29.5 -105.166 -54.5 -149.499s-52.5 -80.333 -82.5 -108s-63.833 -50.667 -101.5 -69s-74.167 -31.166 -109.5 -38.499s-71.333 -11 -108 -11c-50 0 -94.833 7.16699 -134.5 21.5s-74.167 35.833 -103.5 64.5
s-49 67.834 -59 117.501s-8 106.834 6 171.501zM322 358.994c-32 -152.667 7.66602 -229 118.999 -229s183.333 77.333 216 232c16.667 77.333 14.334 138.333 -6.99902 183c-18 34.667 -54.333 52 -109 52c-112 0 -185 -79.333 -219 -238zM528.999 945.994h169l89 -145
h-130l-57 77l-91 -77h-130z" />
    <glyph glyph-name="Otilde" unicode="&#xd5;" horiz-adv-x="833" 
d="M116 358c3.33301 16.667 8 34.3281 14 52.9951s15 42.167 27 70.5s28.333 56.833 49 85.5s43.667 53.667 69 75c80.667 66.667 182 100 304 100c55.333 0 103 -7.83301 143 -23.5s70.833 -35.834 92.5 -60.501s37.5 -54.167 47.5 -88.5s14.667 -68.666 14 -102.999
s-5 -70.166 -13 -107.499c-11.333 -55.333 -29.5 -105.166 -54.5 -149.499s-52.5 -80.333 -82.5 -108s-63.833 -50.667 -101.5 -69s-74.167 -31.166 -109.5 -38.499s-71.333 -11 -108 -11c-50 0 -94.833 7.16699 -134.5 21.5s-74.167 35.833 -103.5 64.5
s-49 67.834 -59 117.501s-8 106.834 6 171.501zM322 358.994c-32 -152.667 7.66602 -229 118.999 -229s183.333 77.333 216 232c16.667 77.333 14.334 138.333 -6.99902 183c-18 34.667 -54.333 52 -109 52c-112 0 -185 -79.333 -219 -238zM429.999 800.994h-77.998
c10.667 39.333 32 73 64 101c34 30 71.667 45 113 45c17.333 0 40.666 -4.66699 69.999 -14l73 -22c12 -4 21.667 -6 29 -6c19.333 0 33.333 13 42 39h81c-12 -40 -34.333 -74 -67 -102s-67.334 -42 -104.001 -42c-12.667 0 -28.667 3 -48 9l-77 24
c-17.333 5.33301 -31 8 -41 8c-25.333 0 -44.333 -13.333 -57 -40z" />
    <glyph glyph-name="Odieresis" unicode="&#xd6;" horiz-adv-x="833" 
d="M116 358c3.33301 16.667 8 34.3281 14 52.9951s15 42.167 27 70.5s28.333 56.833 49 85.5s43.667 53.667 69 75c80.667 66.667 182 100 304 100c55.333 0 103 -7.83301 143 -23.5s70.833 -35.834 92.5 -60.501s37.5 -54.167 47.5 -88.5s14.667 -68.666 14 -102.999
s-5 -70.166 -13 -107.499c-11.333 -55.333 -29.5 -105.166 -54.5 -149.499s-52.5 -80.333 -82.5 -108s-63.833 -50.667 -101.5 -69s-74.167 -31.166 -109.5 -38.499s-71.333 -11 -108 -11c-50 0 -94.833 7.16699 -134.5 21.5s-74.167 35.833 -103.5 64.5
s-49 67.834 -59 117.501s-8 106.834 6 171.501zM322 358.994c-32 -152.667 7.66602 -229 118.999 -229s183.333 77.333 216 232c16.667 77.333 14.334 138.333 -6.99902 183c-18 34.667 -54.333 52 -109 52c-112 0 -185 -79.333 -219 -238zM631.999 800.994l31 145h171
l-31 -145h-171zM368.999 800.994l31 145h171l-31 -145h-171z" />
    <glyph glyph-name="multiply" unicode="&#xd7;" horiz-adv-x="660" 
d="M90 105l199 164l-129 164l119 98l129 -164l199 164l77 -98l-198 -164l128 -164l-119 -98l-129 163l-199 -163z" />
    <glyph glyph-name="Oslash" unicode="&#xd8;" horiz-adv-x="833" 
d="M808 661l116.998 97.999l50 -71l-118 -98c26.667 -61.333 30.334 -137.666 11.001 -228.999c-25.333 -119.333 -77.5 -211.833 -156.5 -277.5s-178.167 -98.5 -297.5 -98.5c-91.333 0 -162.666 19.333 -213.999 58l-119 -99l-51 69l113 94
c-38 63.333 -45.667 148 -23 254c25.333 119.333 77.5 211.833 156.5 277.5s178.167 98.5 297.5 98.5c105.333 0 183.333 -25.333 234 -76zM666.998 431.999l-321 -267c20 -26.667 52.667 -40 98 -40c109.333 0 180.333 77.667 213 233c6.66699 30 10 54.667 10 74z
M318.998 252.999l335.001 280c-16.667 42.667 -53.334 64 -110.001 64c-109.333 0 -181 -79.667 -215 -239c-8.66699 -40 -12 -75 -10 -105z" />
    <glyph glyph-name="Ugrave" unicode="&#xd9;" horiz-adv-x="833" 
d="M225 722h202.001l-91 -429c-10.667 -50 -10.667 -86.333 0 -109c18.667 -39.333 55.667 -59 111 -59c96 0 156.333 58.333 181 175l89 422h195l-88 -418c-22 -102.667 -56.333 -176 -103 -220c-70.667 -68.667 -174.667 -103 -312 -103
c-47.333 0 -88.666 4.33301 -123.999 13s-63.333 19 -84 31s-37.167 28.5 -49.5 49.5s-20.833 39.833 -25.5 56.5s-6.33398 38 -5.00098 64s3.16602 46 5.49902 60s5.83301 32.667 10.5 56zM556.001 801l-155 145h208l76 -145h-129z" />
    <glyph glyph-name="Uacute" unicode="&#xda;" horiz-adv-x="833" 
d="M225 722h202.001l-91 -429c-10.667 -50 -10.667 -86.333 0 -109c18.667 -39.333 55.667 -59 111 -59c96 0 156.333 58.333 181 175l89 422h195l-88 -418c-22 -102.667 -56.333 -176 -103 -220c-70.667 -68.667 -174.667 -103 -312 -103
c-47.333 0 -88.666 4.33301 -123.999 13s-63.333 19 -84 31s-37.167 28.5 -49.5 49.5s-20.833 39.833 -25.5 56.5s-6.33398 38 -5.00098 64s3.16602 46 5.49902 60s5.83301 32.667 10.5 56zM835.001 946l-214 -145h-132l142 145h204z" />
    <glyph glyph-name="Ucircumflex" unicode="&#xdb;" horiz-adv-x="833" 
d="M225 722h202.001l-91 -429c-10.667 -50 -10.667 -86.333 0 -109c18.667 -39.333 55.667 -59 111 -59c96 0 156.333 58.333 181 175l89 422h195l-88 -418c-22 -102.667 -56.333 -176 -103 -220c-70.667 -68.667 -174.667 -103 -312 -103
c-47.333 0 -88.666 4.33301 -123.999 13s-63.333 19 -84 31s-37.167 28.5 -49.5 49.5s-20.833 39.833 -25.5 56.5s-6.33398 38 -5.00098 64s3.16602 46 5.49902 60s5.83301 32.667 10.5 56zM529.001 946h169l89 -145h-130l-57 77l-91 -77h-130z" />
    <glyph glyph-name="Udieresis" unicode="&#xdc;" horiz-adv-x="833" 
d="M225 722h202.001l-91 -429c-10.667 -50 -10.667 -86.333 0 -109c18.667 -39.333 55.667 -59 111 -59c96 0 156.333 58.333 181 175l89 422h195l-88 -418c-22 -102.667 -56.333 -176 -103 -220c-70.667 -68.667 -174.667 -103 -312 -103
c-47.333 0 -88.666 4.33301 -123.999 13s-63.333 19 -84 31s-37.167 28.5 -49.5 49.5s-20.833 39.833 -25.5 56.5s-6.33398 38 -5.00098 64s3.16602 46 5.49902 60s5.83301 32.667 10.5 56zM632.001 801l31 145h171l-31 -145h-171zM369.001 801l31 145h171l-31 -145h-171z
" />
    <glyph glyph-name="Yacute" unicode="&#xdd;" horiz-adv-x="778" 
d="M159 722h232l94 -303l227 303h206l-381 -467l-54 -255h-202l56 264zM808 946l-214 -145h-132l142 145h204z" />
    <glyph glyph-name="Thorn" unicode="&#xde;" horiz-adv-x="722" 
d="M73 0l152.999 722h200l-21 -102h132c94.667 0 163.334 -17.833 206.001 -53.5s55.167 -95.167 37.5 -178.5s-55.5 -142.833 -113.5 -178.5s-134.333 -53.5 -229 -53.5h-132l-33 -156h-200zM374.999 480l-39 -184h103c38 0 68 8.33301 90 25s35.833 39 41.5 67
s1.16699 50.333 -13.5 67s-41 25 -79 25h-103z" />
    <glyph glyph-name="germandbls" unicode="&#xdf;" horiz-adv-x="778" 
d="M65 0l108.997 514.002c6.66699 30.667 17.334 58.334 32.001 83.001s30.334 44.5 47.001 59.5s36.834 28.167 60.501 39.5s44.5 19.5 62.5 24.5s38.5 9 61.5 12s39.667 4.66699 50 5s22.5 0.5 36.5 0.5c10.667 0 20.334 -0.166992 29.001 -0.5s22.5 -1.5 41.5 -3.5
s35.667 -5 50 -9s30 -10.167 47 -18.5s30.333 -18.166 40 -29.499s17 -26.166 22 -44.499s4.83301 -38.833 -0.5 -61.5c-4 -18.667 -10.833 -34.834 -20.5 -48.501s-18.334 -23.167 -26.001 -28.5s-18.5 -12 -32.5 -20c-26.667 -14 -44.167 -24.5 -52.5 -31.5
s-13.833 -17.167 -16.5 -30.5c-3.33301 -15.333 -1 -28 7 -38s32 -27 72 -51c19.333 -12 33.666 -21.333 42.999 -28s19.333 -16.334 30 -29.001s16.834 -27 18.501 -43s0.166992 -35 -4.5 -57c-10.667 -51.333 -39.167 -94 -85.5 -128s-106.833 -51 -181.5 -51
c-87.333 0 -144.333 19.333 -171 58c-17.333 24.667 -22.333 59 -15 103h166c-3.33301 -18 -1.33301 -32.667 6 -44c8.66699 -10.667 20 -16 34 -16c12 0 22.667 2.83301 32 8.5s16.5 13.167 21.5 22.5s8.5 16.666 10.5 21.999s3.33301 10.666 4 15.999
c5.33301 23.333 3.33301 40.5 -6 51.5s-33 27.833 -71 50.5c-23.333 13.333 -39.666 23.333 -48.999 30s-19.833 15.5 -31.5 26.5s-18.667 22.5 -21 34.5s-1.5 26.333 2.5 43c8 39.333 38.667 73 92 101c13.333 6.66699 23.166 12.167 29.499 16.5s12.5 10.666 18.5 18.999
s10.333 18.5 13 30.5c4.66699 22 1.16699 40 -10.5 54s-32.5 21 -62.5 21c-74.667 0 -121 -43 -139 -129l-108 -506h-184z" />
    <glyph glyph-name="agrave" unicode="&#xe0;" horiz-adv-x="611" 
d="M560 0l-179.998 -0.000976562c0 18 3 42 9 72c-48 -54.667 -108.667 -82 -182 -82c-58.667 0 -99.834 14.333 -123.501 43s-30.5 66.334 -20.5 113.001c27.333 128 154.333 187.333 381 178c7.33301 32.667 8.83301 58.167 4.5 76.5s-19.5 27.5 -45.5 27.5
c-20 0 -37.667 -6 -53 -18s-25.333 -31.333 -30 -58h-180c11.333 45.333 31.666 80.333 60.999 105c50 42 124 63 222 63c90 0 150.333 -19.333 181 -58c23.333 -28.667 28.666 -72.667 15.999 -132l-50 -234c-5.33301 -26.667 -8.66602 -58.667 -9.99902 -96z
M424.002 236.999c-21.333 0 -37.333 -0.330078 -48 -0.99707s-24.667 -2.33398 -42 -5.00098s-30.5 -6.33398 -39.5 -11.001s-17.667 -11.834 -26 -21.501s-13.833 -21.5 -16.5 -35.5c-4.66699 -19.333 -2.16699 -35.5 7.5 -48.5s25.167 -19.5 46.5 -19.5c34 0 62 16 84 48
c16.667 24 28 55.333 34 94zM416.002 581.002l-155 145h208l76 -145h-129z" />
    <glyph glyph-name="aacute" unicode="&#xe1;" horiz-adv-x="611" 
d="M560 0l-179.998 -0.000976562c0 18 3 42 9 72c-48 -54.667 -108.667 -82 -182 -82c-58.667 0 -99.834 14.333 -123.501 43s-30.5 66.334 -20.5 113.001c27.333 128 154.333 187.333 381 178c7.33301 32.667 8.83301 58.167 4.5 76.5s-19.5 27.5 -45.5 27.5
c-20 0 -37.667 -6 -53 -18s-25.333 -31.333 -30 -58h-180c11.333 45.333 31.666 80.333 60.999 105c50 42 124 63 222 63c90 0 150.333 -19.333 181 -58c23.333 -28.667 28.666 -72.667 15.999 -132l-50 -234c-5.33301 -26.667 -8.66602 -58.667 -9.99902 -96z
M424.002 236.999c-21.333 0 -37.333 -0.330078 -48 -0.99707s-24.667 -2.33398 -42 -5.00098s-30.5 -6.33398 -39.5 -11.001s-17.667 -11.834 -26 -21.501s-13.833 -21.5 -16.5 -35.5c-4.66699 -19.333 -2.16699 -35.5 7.5 -48.5s25.167 -19.5 46.5 -19.5c34 0 62 16 84 48
c16.667 24 28 55.333 34 94zM653.002 726.002l-214 -145h-132l142 145h204z" />
    <glyph glyph-name="acircumflex" unicode="&#xe2;" horiz-adv-x="611" 
d="M560 0l-179.998 -0.000976562c0 18 3 42 9 72c-48 -54.667 -108.667 -82 -182 -82c-58.667 0 -99.834 14.333 -123.501 43s-30.5 66.334 -20.5 113.001c27.333 128 154.333 187.333 381 178c7.33301 32.667 8.83301 58.167 4.5 76.5s-19.5 27.5 -45.5 27.5
c-20 0 -37.667 -6 -53 -18s-25.333 -31.333 -30 -58h-180c11.333 45.333 31.666 80.333 60.999 105c50 42 124 63 222 63c90 0 150.333 -19.333 181 -58c23.333 -28.667 28.666 -72.667 15.999 -132l-50 -234c-5.33301 -26.667 -8.66602 -58.667 -9.99902 -96z
M424.002 236.999c-21.333 0 -37.333 -0.330078 -48 -0.99707s-24.667 -2.33398 -42 -5.00098s-30.5 -6.33398 -39.5 -11.001s-17.667 -11.834 -26 -21.501s-13.833 -21.5 -16.5 -35.5c-4.66699 -19.333 -2.16699 -35.5 7.5 -48.5s25.167 -19.5 46.5 -19.5c34 0 62 16 84 48
c16.667 24 28 55.333 34 94zM371.002 726.002h169l89 -145h-130l-57 77l-91 -77h-130z" />
    <glyph glyph-name="atilde" unicode="&#xe3;" horiz-adv-x="611" 
d="M560 0l-179.998 -0.000976562c0 18 3 42 9 72c-48 -54.667 -108.667 -82 -182 -82c-58.667 0 -99.834 14.333 -123.501 43s-30.5 66.334 -20.5 113.001c27.333 128 154.333 187.333 381 178c7.33301 32.667 8.83301 58.167 4.5 76.5s-19.5 27.5 -45.5 27.5
c-20 0 -37.667 -6 -53 -18s-25.333 -31.333 -30 -58h-180c11.333 45.333 31.666 80.333 60.999 105c50 42 124 63 222 63c90 0 150.333 -19.333 181 -58c23.333 -28.667 28.666 -72.667 15.999 -132l-50 -234c-5.33301 -26.667 -8.66602 -58.667 -9.99902 -96z
M424.002 236.999c-21.333 0 -37.333 -0.330078 -48 -0.99707s-24.667 -2.33398 -42 -5.00098s-30.5 -6.33398 -39.5 -11.001s-17.667 -11.834 -26 -21.501s-13.833 -21.5 -16.5 -35.5c-4.66699 -19.333 -2.16699 -35.5 7.5 -48.5s25.167 -19.5 46.5 -19.5c34 0 62 16 84 48
c16.667 24 28 55.333 34 94zM264.002 581.002h-77.998c10.667 39.333 32 73 64 101c34.667 30 72.667 45 114 45c17.333 0 40.666 -4.66699 69.999 -14l72 -22c12 -4 22 -6 30 -6c19.333 0 33 13 41 39h81c-12 -40 -34.333 -74 -67 -102s-67.334 -42 -104.001 -42
c-12 0 -28 3 -48 9l-77 24c-17.333 5.33301 -31 8 -41 8c-25.333 0 -44.333 -13.333 -57 -40z" />
    <glyph glyph-name="adieresis" unicode="&#xe4;" horiz-adv-x="611" 
d="M560 0l-179.998 -0.000976562c0 18 3 42 9 72c-48 -54.667 -108.667 -82 -182 -82c-58.667 0 -99.834 14.333 -123.501 43s-30.5 66.334 -20.5 113.001c27.333 128 154.333 187.333 381 178c7.33301 32.667 8.83301 58.167 4.5 76.5s-19.5 27.5 -45.5 27.5
c-20 0 -37.667 -6 -53 -18s-25.333 -31.333 -30 -58h-180c11.333 45.333 31.666 80.333 60.999 105c50 42 124 63 222 63c90 0 150.333 -19.333 181 -58c23.333 -28.667 28.666 -72.667 15.999 -132l-50 -234c-5.33301 -26.667 -8.66602 -58.667 -9.99902 -96z
M424.002 236.999c-21.333 0 -37.333 -0.330078 -48 -0.99707s-24.667 -2.33398 -42 -5.00098s-30.5 -6.33398 -39.5 -11.001s-17.667 -11.834 -26 -21.501s-13.833 -21.5 -16.5 -35.5c-4.66699 -19.333 -2.16699 -35.5 7.5 -48.5s25.167 -19.5 46.5 -19.5c34 0 62 16 84 48
c16.667 24 28 55.333 34 94zM474.002 581.002l31 145h171l-31 -145h-171zM211.002 581.002l31 145h171l-31 -145h-171z" />
    <glyph glyph-name="aring" unicode="&#xe5;" horiz-adv-x="611" 
d="M560 0l-179.998 -0.000976562c0 18 3 42 9 72c-48 -54.667 -108.667 -82 -182 -82c-58.667 0 -99.834 14.333 -123.501 43s-30.5 66.334 -20.5 113.001c27.333 128 154.333 187.333 381 178c7.33301 32.667 8.83301 58.167 4.5 76.5s-19.5 27.5 -45.5 27.5
c-20 0 -37.667 -6 -53 -18s-25.333 -31.333 -30 -58h-180c11.333 45.333 31.666 80.333 60.999 105c50 42 124 63 222 63c90 0 150.333 -19.333 181 -58c23.333 -28.667 28.666 -72.667 15.999 -132l-50 -234c-5.33301 -26.667 -8.66602 -58.667 -9.99902 -96z
M424.002 236.999c-21.333 0 -37.333 -0.330078 -48 -0.99707s-24.667 -2.33398 -42 -5.00098s-30.5 -6.33398 -39.5 -11.001s-17.667 -11.834 -26 -21.501s-13.833 -21.5 -16.5 -35.5c-4.66699 -19.333 -2.16699 -35.5 7.5 -48.5s25.167 -19.5 46.5 -19.5c34 0 62 16 84 48
c16.667 24 28 55.333 34 94zM557.002 653.002c-6.66699 -31.333 -23.3311 -57.833 -49.998 -79.5s-55.334 -32.5 -86.001 -32.5s-54.667 11 -72 33s-22.666 48.333 -15.999 79c6.66699 31.333 23.167 58 49.5 80s55.166 33 86.499 33c30.667 0 54.667 -11 72 -33
s22.666 -48.667 15.999 -80zM497.505 653.002c3 14.667 0.499023 27.332 -7.50098 37.999s-19.333 16 -34 16s-28.167 -5.16699 -40.5 -15.5s-20.166 -23.166 -23.499 -38.499c-3.33301 -14.667 -0.833008 -27.167 7.5 -37.5s19.833 -15.5 34.5 -15.5
s28.167 5.16699 40.5 15.5s20 22.833 23 37.5z" />
    <glyph glyph-name="ae" unicode="&#xe6;" horiz-adv-x="944" 
d="M250 161c-4 -18 -0.999023 -33.5 9.00098 -46.5s24 -19.5 42 -19.5c19.333 0 36.166 4 50.499 12s26 19.833 35 35.5s15.833 30.667 20.5 45s9.33398 31.5 14.001 51.5c-54.667 0 -90.334 -3.66699 -107.001 -11c-36.667 -16.667 -58 -39 -64 -67zM614.001 315
l175.998 0.000976562c6 28.667 3.66699 53.667 -7 75c-12 23.333 -31.667 34 -59 32c-31.333 -1.33301 -55.166 -11.333 -71.499 -30s-29.166 -44.334 -38.499 -77.001zM362.999 324.001l76.0029 -0.000976562c0.666992 3.33301 2.5 11 5.5 23s5 20.5 6 25.5
s1.33301 12.167 1 21.5s-2.16602 16 -5.49902 20s-8.83301 7.83301 -16.5 11.5s-17.834 5.16699 -30.501 4.5c-20.667 -0.666992 -38.334 -8.83398 -53.001 -24.501s-23 -30.167 -25 -43.5h-179c11.333 56.667 49.333 98.334 114 125.001c47.333 20 107 30 179 30
c26.667 0 53.5 -5.66699 80.5 -17s47.833 -28.666 62.5 -51.999c48 46 103.333 69 166 69c97.333 0 161 -25.833 191 -77.5s34.333 -127.167 13 -226.5h-360c-18 -78.667 3.33301 -118 64 -118c54 0 89.333 23 106 69h180c-15.333 -57.333 -55.333 -103.333 -120 -138
c-50.667 -27.333 -109.334 -41 -176.001 -41c-94.667 0 -152 36 -172 108c-52 -72 -135.333 -108 -250 -108c-60 0 -105.833 14 -137.5 42s-41.5 69.333 -29.5 124c6.66699 29.333 21 55.5 43 78.5s48.167 41.167 78.5 54.5s61.666 23.333 93.999 30s63.833 10 94.5 10z" />
    <glyph glyph-name="ccedilla" unicode="&#xe7;" horiz-adv-x="611" 
d="M429 196l190.001 -0.00292969c-11.333 -56.667 -41.5 -104.667 -90.5 -144s-114.833 -60.666 -197.5 -63.999l-37 -50c14 2 25.333 3 34 3c32.667 0 55.834 -7.16699 69.501 -21.5s18.5 -31.833 14.5 -52.5c-4.66699 -22 -19.5 -41.667 -44.5 -59s-61.5 -26 -109.5 -26
c-44 0 -80.333 6.66699 -109 20l21 45c29.333 -14.667 59 -22 89 -22c35.333 0 55.666 13 60.999 39c2.66699 12 -0.333008 21.167 -9 27.5s-19.667 9.5 -33 9.5c-10.667 0 -24 -3 -40 -9l-19 20l63 78c-72.667 6.66699 -126 32.5 -160 77.5s-42.667 107.167 -26 186.5
c10 47.333 26.667 88.833 50 124.5s50.666 63.334 81.999 83.001s64 34.167 98 43.5s69.333 14 106 14c91.333 0 154 -24 188 -72c22.667 -31.333 30.334 -71.666 23.001 -120.999h-186c12.667 57.333 -3.33301 86 -48 86c-32 0 -57.167 -14 -75.5 -42
s-32.833 -66.667 -43.5 -116c-12.667 -60.667 -14.334 -102.5 -5.00098 -125.5s27.333 -34.5 54 -34.5c45.333 0 75.333 34 90 102z" />
    <glyph glyph-name="egrave" unicode="&#xe8;" horiz-adv-x="611" 
d="M616 213l-359.999 0.000976562c-17.333 -81.333 6 -122 70 -122c52 0 86 24.333 102 73h175c-19.333 -59.333 -56.333 -103.333 -111 -132s-117.334 -43 -188.001 -43c-87.333 0 -149.5 21.667 -186.5 65s-46.5 106.333 -28.5 189c18 87.333 54.333 155.333 109 204
s127 73 217 73c118.667 0 189 -42.667 211 -128c11.333 -36.667 8 -96.334 -10 -179.001zM280.001 315.001h181.001c10 70 -12.667 105 -68 105c-54.667 0 -92.334 -35 -113.001 -105zM416.002 581.001l-155 145h208l76 -145h-129z" />
    <glyph glyph-name="eacute" unicode="&#xe9;" horiz-adv-x="611" 
d="M616 213l-359.999 0.000976562c-17.333 -81.333 6 -122 70 -122c52 0 86 24.333 102 73h175c-19.333 -59.333 -56.333 -103.333 -111 -132s-117.334 -43 -188.001 -43c-87.333 0 -149.5 21.667 -186.5 65s-46.5 106.333 -28.5 189c18 87.333 54.333 155.333 109 204
s127 73 217 73c118.667 0 189 -42.667 211 -128c11.333 -36.667 8 -96.334 -10 -179.001zM280.001 315.001h181.001c10 70 -12.667 105 -68 105c-54.667 0 -92.334 -35 -113.001 -105zM653.002 726.001l-214 -145h-132l142 145h204z" />
    <glyph glyph-name="ecircumflex" unicode="&#xea;" horiz-adv-x="611" 
d="M616 213l-359.999 0.000976562c-17.333 -81.333 6 -122 70 -122c52 0 86 24.333 102 73h175c-19.333 -59.333 -56.333 -103.333 -111 -132s-117.334 -43 -188.001 -43c-87.333 0 -149.5 21.667 -186.5 65s-46.5 106.333 -28.5 189c18 87.333 54.333 155.333 109 204
s127 73 217 73c118.667 0 189 -42.667 211 -128c11.333 -36.667 8 -96.334 -10 -179.001zM280.001 315.001h181.001c10 70 -12.667 105 -68 105c-54.667 0 -92.334 -35 -113.001 -105zM371.002 726.001h169l89 -145h-130l-57 77l-91 -77h-130z" />
    <glyph glyph-name="edieresis" unicode="&#xeb;" horiz-adv-x="611" 
d="M616 213l-359.999 0.000976562c-17.333 -81.333 6 -122 70 -122c52 0 86 24.333 102 73h175c-19.333 -59.333 -56.333 -103.333 -111 -132s-117.334 -43 -188.001 -43c-87.333 0 -149.5 21.667 -186.5 65s-46.5 106.333 -28.5 189c18 87.333 54.333 155.333 109 204
s127 73 217 73c118.667 0 189 -42.667 211 -128c11.333 -36.667 8 -96.334 -10 -179.001zM280.001 315.001h181.001c10 70 -12.667 105 -68 105c-54.667 0 -92.334 -35 -113.001 -105zM474.002 581.001l31 145h171l-31 -145h-171zM211.002 581.001l31 145h171l-31 -145h-171
z" />
    <glyph glyph-name="igrave" unicode="&#xec;" horiz-adv-x="333" 
d="M262 0h-190l107 502h190zM259 581l-155 145h208l76 -145h-129z" />
    <glyph glyph-name="iacute" unicode="&#xed;" horiz-adv-x="333" 
d="M262 0h-190l107 502h190zM538 726l-214 -145h-132l142 145h204z" />
    <glyph glyph-name="icircumflex" unicode="&#xee;" horiz-adv-x="333" 
d="M262 0h-190l107 502h190zM232 726h169l89 -145h-130l-57 77l-91 -77h-130z" />
    <glyph glyph-name="idieresis" unicode="&#xef;" horiz-adv-x="333" 
d="M262 0h-190l107 502h190zM335 581l31 145h171l-31 -145h-171zM72 581l31 145h171l-31 -145h-171z" />
    <glyph glyph-name="eth" unicode="&#xf0;" 
d="M236 616l102.003 129.999c56 -12.667 100.667 -26.334 134 -41.001l63 45l39 -36l-46 -32c144 -83.333 196.333 -218.666 157 -405.999c-22 -101.333 -64.833 -175.166 -128.5 -221.499s-138.834 -69.5 -225.501 -69.5c-84.667 0 -150.167 20.833 -196.5 62.5
s-60.833 103.167 -43.5 184.5c17.333 80.667 54.666 142.167 111.999 184.5s120.333 63.5 189 63.5c46.667 0 84 -9 112 -27l1 4c-16 27.333 -33.167 48.5 -51.5 63.5s-44.833 32.167 -79.5 51.5l-76 -55l-52 28l67 48c-26.667 9.33301 -52.334 17 -77.001 23z
M286.003 231.999c-20.667 -96.667 1.33301 -145 66 -145s107.334 48.333 128.001 145c20.667 97.333 -1.33301 146 -66 146s-107.334 -48.667 -128.001 -146z" />
    <glyph glyph-name="ntilde" unicode="&#xf1;" 
d="M64 0l84 395.005l18 107h188l-15 -77c48 58.667 110 88 186 88c34.667 0 63.334 -5.33301 86.001 -16s38.5 -22.834 47.5 -36.501s14.333 -31.834 16 -54.501s1.5 -40.334 -0.5 -53.001s-5 -29 -9 -49l-65 -304h-188l61 288c2.66699 13.333 4.5 24.166 5.5 32.499
s0.666992 19.166 -1 32.499s-7.33398 23.5 -17.001 30.5s-23.5 10.5 -41.5 10.5c-56 0 -91.667 -35.333 -107 -106l-61 -288h-187zM282 581.005h-77.998c10.667 39.333 32 73 64 101c34.667 30 72.667 45 114 45c17.333 0 40.666 -4.66699 69.999 -14l72 -22
c12 -4 22 -6 30 -6c19.333 0 33 13 41 39h81c-12 -40 -34.333 -74 -67 -102s-67.334 -42 -104.001 -42c-12 0 -28 3 -48 9l-77 24c-17.333 5.33301 -31 8 -41 8c-25.333 0 -44.333 -13.333 -57 -40z" />
    <glyph glyph-name="ograve" unicode="&#xf2;" 
d="M92 253c16.667 80 55.167 144.333 115.5 193s138.5 73 234.5 73c86 0 151.167 -22 195.5 -66s57.5 -108.667 39.5 -194c-18 -84 -56.333 -150.333 -115 -199c-60 -48 -134.333 -72 -223 -72c-103.333 0 -175.333 24.667 -216 74c-38 45.333 -48.333 109 -31 191zM287 252
c-11.333 -51.333 -12 -91 -2 -119c10 -26.667 31.667 -40 65 -40c65.333 0 109.333 53 132 159c22.667 106.667 2 160 -62 160c-66 0 -110.333 -53.333 -133 -160zM426 581l-155 145h208l76 -145h-129z" />
    <glyph glyph-name="oacute" unicode="&#xf3;" 
d="M92 253c16.667 80 55.167 144.333 115.5 193s138.5 73 234.5 73c86 0 151.167 -22 195.5 -66s57.5 -108.667 39.5 -194c-18 -84 -56.333 -150.333 -115 -199c-60 -48 -134.333 -72 -223 -72c-103.333 0 -175.333 24.667 -216 74c-38 45.333 -48.333 109 -31 191zM287 252
c-11.333 -51.333 -12 -91 -2 -119c10 -26.667 31.667 -40 65 -40c65.333 0 109.333 53 132 159c22.667 106.667 2 160 -62 160c-66 0 -110.333 -53.333 -133 -160zM705 726l-214 -145h-132l142 145h204z" />
    <glyph glyph-name="ocircumflex" unicode="&#xf4;" 
d="M92 253c16.667 80 55.167 144.333 115.5 193s138.5 73 234.5 73c86 0 151.167 -22 195.5 -66s57.5 -108.667 39.5 -194c-18 -84 -56.333 -150.333 -115 -199c-60 -48 -134.333 -72 -223 -72c-103.333 0 -175.333 24.667 -216 74c-38 45.333 -48.333 109 -31 191zM287 252
c-11.333 -51.333 -12 -91 -2 -119c10 -26.667 31.667 -40 65 -40c65.333 0 109.333 53 132 159c22.667 106.667 2 160 -62 160c-66 0 -110.333 -53.333 -133 -160zM411 726h169l89 -145h-130l-57 77l-91 -77h-130z" />
    <glyph glyph-name="otilde" unicode="&#xf5;" 
d="M92 253c16.667 80 55.167 144.333 115.5 193s138.5 73 234.5 73c86 0 151.167 -22 195.5 -66s57.5 -108.667 39.5 -194c-18 -84 -56.333 -150.333 -115 -199c-60 -48 -134.333 -72 -223 -72c-103.333 0 -175.333 24.667 -216 74c-38 45.333 -48.333 109 -31 191zM287 252
c-11.333 -51.333 -12 -91 -2 -119c10 -26.667 31.667 -40 65 -40c65.333 0 109.333 53 132 159c22.667 106.667 2 160 -62 160c-66 0 -110.333 -53.333 -133 -160zM288 581h-77.998c10.667 39.333 32 73 64 101c34.667 30 72.667 45 114 45
c17.333 0 40.666 -4.66699 69.999 -14l72 -22c12 -4 22 -6 30 -6c19.333 0 33 13 41 39h81c-12 -40 -34.333 -74 -67 -102s-67.334 -42 -104.001 -42c-12 0 -28 3 -48 9l-77 24c-17.333 5.33301 -31 8 -41 8c-25.333 0 -44.333 -13.333 -57 -40z" />
    <glyph glyph-name="odieresis" unicode="&#xf6;" 
d="M92 253c16.667 80 55.167 144.333 115.5 193s138.5 73 234.5 73c86 0 151.167 -22 195.5 -66s57.5 -108.667 39.5 -194c-18 -84 -56.333 -150.333 -115 -199c-60 -48 -134.333 -72 -223 -72c-103.333 0 -175.333 24.667 -216 74c-38 45.333 -48.333 109 -31 191zM287 252
c-11.333 -51.333 -12 -91 -2 -119c10 -26.667 31.667 -40 65 -40c65.333 0 109.333 53 132 159c22.667 106.667 2 160 -62 160c-66 0 -110.333 -53.333 -133 -160zM502 581l31 145h171l-31 -145h-171zM239 581l31 145h171l-31 -145h-171z" />
    <glyph glyph-name="divide" unicode="&#xf7;" horiz-adv-x="660" 
d="M103 199l30 140h538l-30 -140h-538zM251 2l33 151h158l-33 -151h-158zM333 385l32 151h158l-32 -151h-158z" />
    <glyph glyph-name="oslash" unicode="&#xf8;" 
d="M283 178l200.002 191.999c-10.667 24.667 -31.334 37 -62.001 37c-64.667 0 -108.334 -52 -131.001 -156c-6 -29.333 -8.33301 -53.666 -7 -72.999zM492.002 303.999l-191.001 -184c9.33301 -16.667 27 -25 53 -25c64.667 0 108 52 130 156
c4.66699 19.333 7.33398 37 8.00098 53zM101.001 -72.001l-40 36l85 81c-53.333 46 -70.333 114.667 -51 206c12.667 59.333 37 109.5 73 150.5s77.333 70.5 124 88.5s97.334 27 152.001 27c62 0 113 -12 153 -36l78 75l40 -37l-74 -72c43.333 -46.667 56 -112 38 -196
c-12.667 -59.333 -37 -109.5 -73 -150.5s-77.167 -70.5 -123.5 -88.5s-96.833 -27 -151.5 -27c-56.667 0 -103.334 10 -140.001 30z" />
    <glyph glyph-name="ugrave" unicode="&#xf9;" 
d="M171 502l187.001 0.000976562l-63 -293c-13.333 -65.333 5 -98 55 -98c52.667 0 86 33.333 100 100l62 291h188l-89 -415c-3.33301 -24.667 -8.33301 -53.667 -15 -87h-185l13 78c-30.667 -36 -60.334 -59.5 -89.001 -70.5s-58 -16.5 -88 -16.5c-33.333 0 -61 5 -83 15
s-37.5 22.167 -46.5 36.5s-14.667 32.833 -17 55.5s-2.5 42.667 -0.5 60s5.66699 37.666 11 60.999zM426.001 581.001l-155 145h208l76 -145h-129z" />
    <glyph glyph-name="uacute" unicode="&#xfa;" 
d="M171 502l187.001 0.000976562l-63 -293c-13.333 -65.333 5 -98 55 -98c52.667 0 86 33.333 100 100l62 291h188l-89 -415c-3.33301 -24.667 -8.33301 -53.667 -15 -87h-185l13 78c-30.667 -36 -60.334 -59.5 -89.001 -70.5s-58 -16.5 -88 -16.5c-33.333 0 -61 5 -83 15
s-37.5 22.167 -46.5 36.5s-14.667 32.833 -17 55.5s-2.5 42.667 -0.5 60s5.66699 37.666 11 60.999zM705.001 726.001l-214 -145h-132l142 145h204z" />
    <glyph glyph-name="ucircumflex" unicode="&#xfb;" 
d="M171 502l187.001 0.000976562l-63 -293c-13.333 -65.333 5 -98 55 -98c52.667 0 86 33.333 100 100l62 291h188l-89 -415c-3.33301 -24.667 -8.33301 -53.667 -15 -87h-185l13 78c-30.667 -36 -60.334 -59.5 -89.001 -70.5s-58 -16.5 -88 -16.5c-33.333 0 -61 5 -83 15
s-37.5 22.167 -46.5 36.5s-14.667 32.833 -17 55.5s-2.5 42.667 -0.5 60s5.66699 37.666 11 60.999zM399.001 726.001h169l89 -145h-130l-57 77l-91 -77h-130z" />
    <glyph glyph-name="udieresis" unicode="&#xfc;" 
d="M171 502l187.001 0.000976562l-63 -293c-13.333 -65.333 5 -98 55 -98c52.667 0 86 33.333 100 100l62 291h188l-89 -415c-3.33301 -24.667 -8.33301 -53.667 -15 -87h-185l13 78c-30.667 -36 -60.334 -59.5 -89.001 -70.5s-58 -16.5 -88 -16.5c-33.333 0 -61 5 -83 15
s-37.5 22.167 -46.5 36.5s-14.667 32.833 -17 55.5s-2.5 42.667 -0.5 60s5.66699 37.666 11 60.999zM502.001 581.001l31 145h171l-31 -145h-171zM239.001 581.001l31 145h171l-31 -145h-171z" />
    <glyph glyph-name="yacute" unicode="&#xfd;" horiz-adv-x="611" 
d="M702 502l-420 -692h-175l108 174l-100 518h203l26 -349l183 349h175zM677 726l-214 -145h-132l142 145h204z" />
    <glyph glyph-name="thorn" unicode="&#xfe;" 
d="M15 -192l193.999 914.001h190l-61 -291h2c48.667 57.333 109 86 181 86c70 0 117.833 -25.167 143.5 -75.5s30.834 -111.5 15.501 -183.5c-16.667 -78.667 -50.5 -143.834 -101.5 -195.501s-114.833 -77.5 -191.5 -77.5c-54.667 0 -96.667 25 -126 75h-2l-54 -252h-190z
M424.999 407.001c-61.333 0 -103.166 -52 -125.499 -156s-2.83301 -156 58.5 -156s103.166 52 125.499 156s2.83301 156 -58.5 156z" />
    <glyph glyph-name="ydieresis" unicode="&#xff;" horiz-adv-x="611" 
d="M702 502l-420 -692h-175l108 174l-100 518h203l26 -349l183 349h175zM474 581l31 145h171l-31 -145h-171zM211 581l31 145h171l-31 -145h-171z" />
    <glyph glyph-name="dotlessi" unicode="&#x131;" horiz-adv-x="333" 
d="M262 0h-190l107 502h190z" />
    <glyph glyph-name="OE" unicode="&#x152;" horiz-adv-x="1000" 
d="M797 582l-32 -148.999h248l-30 -140h-248l-32 -153h278l-30 -140h-550c-112 -0.666992 -195 32.166 -249 98.499s-69 155.5 -45 267.5c9.33301 46 26 90.5 50 133.5s55.167 82.167 93.5 117.5s80.833 61.333 127.5 78c49.333 18 117 27 203 27h514l-29 -140h-269z
M501 134.001l97.998 457c-37.333 4 -56.333 6 -57 6c-62 0 -111.333 -21.333 -148 -64s-62.667 -99.667 -78 -171c-13.333 -64 -10.666 -119 8.00098 -165s58 -69 118 -69c0.666992 0 20.334 2 59.001 6z" />
    <glyph glyph-name="oe" unicode="&#x153;" horiz-adv-x="1000" 
d="M286.5 251c-22.333 -104 -1.16602 -156 63.501 -156s108.167 52 130.5 156s1.16602 156 -63.501 156s-108.167 -52 -130.5 -156zM678 315l175.998 0.000976562c6 28.667 3.66699 53.667 -7 75c-12 23.333 -31.667 34 -59 32
c-31.333 -1.33301 -55.166 -11.333 -71.499 -30s-29.166 -44.334 -38.499 -77.001zM90.998 251.001c12.667 59.333 37 109.501 73 150.501s77.333 70.5 124 88.5s97.334 27 152.001 27c86 0 148.667 -27.333 188 -82c52.667 54.667 112.667 82 180 82
c97.333 0 161 -25.833 191 -77.5s34.333 -127.167 13 -226.5h-360c-18 -78.667 3.33301 -118 64 -118c54 0 89.333 23 106 69h180c-15.333 -57.333 -55.333 -103.333 -120 -138c-50.667 -27.333 -109.334 -41 -176.001 -41c-43.333 0 -79.5 8.16699 -108.5 24.5
s-48.833 38.166 -59.5 65.499c-64.667 -60 -135 -90 -211 -90c-54.667 0 -101.5 9 -140.5 27s-67.833 47.5 -86.5 88.5s-21.667 91.167 -9 150.5z" />
    <glyph glyph-name="Scaron" unicode="&#x160;" horiz-adv-x="722" 
d="M91 230l201.001 -0.00195312c-2 -9.33301 -3.33301 -17.166 -4 -23.499s0 -15.666 2 -27.999s6 -22.333 12 -30s16.5 -14.667 31.5 -21s33.833 -9.5 56.5 -9.5c6.66699 0 12.834 0.166992 18.501 0.5s14.667 2 27 5s23.166 7 32.499 12s18.666 13.167 27.999 24.5
s15.666 24.666 18.999 39.999c3.33301 18 1.5 32.667 -5.5 44s-21.167 20 -42.5 26l-167 46c-14.667 4 -26.667 7.66699 -36 11s-22.833 10.166 -40.5 20.499s-31.334 22 -41.001 35s-16.834 31 -21.501 54s-4 48.833 2 77.5c14 64 50.833 117.667 110.5 161
s140.167 65 241.5 65c38.667 0 73 -3 103 -9s54.167 -13.5 72.5 -22.5s33.333 -20.667 45 -35s20 -27.833 25 -40.5s7.83301 -27.5 8.5 -44.5s0.333984 -30.833 -0.999023 -41.5s-3.66602 -23 -6.99902 -37h-203c14.667 66.667 -9.66602 100 -72.999 100
c-28.667 0 -53.167 -7.16699 -73.5 -21.5s-32.833 -32.5 -37.5 -54.5c-4 -16 -2.66699 -29.667 4 -41s13.834 -18.666 21.501 -21.999s18.167 -7 31.5 -11l127 -35c18 -4.66699 31.5 -8.5 40.5 -11.5s21.5 -7.66699 37.5 -14s28.167 -12.666 36.5 -18.999
s17.666 -14.833 27.999 -25.5s17.5 -22.167 21.5 -34.5s6.5 -27.333 7.5 -45s-0.833008 -37.167 -5.5 -58.5c-16.667 -77.333 -58.334 -135.5 -125.001 -174.5s-147.667 -58.5 -243 -58.5c-123.333 0 -204.666 28.667 -243.999 86c-26.667 38 -33.667 91.333 -21 160z
M545.001 866.998l93 79h127l-151 -145h-167l-88 145h126z" />
    <glyph glyph-name="scaron" unicode="&#x161;" horiz-adv-x="556" 
d="M64 163l186.001 0.00195312c-4 -18.667 -4.66699 -33.667 -2 -45c4.66699 -20.667 20.667 -31 48 -31c19.333 0 34.833 5.16699 46.5 15.5s18.834 22.166 21.501 35.499c3.33301 16 0.166016 27.667 -9.50098 35s-26.167 14.333 -49.5 21l-96 29
c-76.667 20.667 -107.667 66 -93 136c5.33301 24 15.833 46.167 31.5 66.5s33.5 36.166 53.5 47.499c46.667 28.667 109 43 187 43c146 0 210.333 -56.333 193 -169h-178c4.66699 22.667 5.66699 39 3 49c-5.33301 18 -20.666 27 -45.999 27
c-16 0 -30.167 -3.66699 -42.5 -11s-19.833 -18.333 -22.5 -33c-3.33301 -13.333 -1.33301 -23.5 6 -30.5s18.666 -12.833 33.999 -17.5l126 -37c14 -4 26.167 -8.66699 36.5 -14s21 -13 32 -23s18.5 -23.5 22.5 -40.5s3.5 -37.167 -1.5 -60.5s-13.333 -44.333 -25 -63
s-24.334 -33.834 -38.001 -45.501s-29.834 -21.667 -48.501 -30s-35.167 -14.5 -49.5 -18.5s-30.666 -7 -48.999 -9s-31.5 -3.16699 -39.5 -3.5s-17.333 -0.5 -28 -0.5c-24.667 0 -46.5 0.833008 -65.5 2.5s-39.667 6 -62 13s-40.333 16.667 -54 29s-23.5 29.833 -29.5 52.5
s-5.33301 49.334 2 80.001zM416.001 647.002l92 79h127l-151 -145h-167l-88 145h126z" />
    <glyph glyph-name="Ydieresis" unicode="&#x178;" horiz-adv-x="778" 
d="M159 722h232l94 -303l227 303h206l-381 -467l-54 -255h-202l56 264zM605 801l31 145h171l-31 -145h-171zM342 801l31 145h171l-31 -145h-171z" />
    <glyph glyph-name="Zcaron" unicode="&#x17d;" 
d="M17 0l34 159l449 422h-340l30 139h588l-33 -154l-462 -426h380l-30 -140h-616zM517 867l93 79h127l-151 -145h-167l-88 145h126z" />
    <glyph glyph-name="zcaron" unicode="&#x17e;" horiz-adv-x="556" 
d="M40 0l27 127l295 253h-230l25 121h444l-26 -124l-299 -258h256l-25 -119h-467zM416 647l92 79h127l-151 -145h-167l-88 145h126z" />
    <glyph glyph-name="florin" unicode="&#x192;" 
d="M623 433l-51.998 -130.001h-94l-125 -311c-26.667 -70 -59.834 -119.167 -99.501 -147.5s-91.5 -42.5 -155.5 -42.5c-44.667 0 -79.667 2.66699 -105 8l50 122c14 -0.666992 27.167 -1 39.5 -1s24.333 4.33301 36 13s21.167 22 28.5 40l132 319h-97l53 130h94
c6 13.333 14.333 32.833 25 58.5s19 45 25 58s14.5 29.333 25.5 49s22.667 34.834 35 45.501s27.5 21.5 45.5 32.5s39 18.833 63 23.5s51 7 81 7c35.333 0 67 -2.33301 95 -7l-50 -126c-12.667 4 -24.334 5 -35.001 3s-19.667 -3.83301 -27 -5.5s-14.5 -6 -21.5 -13
s-12.333 -13.167 -16 -18.5s-7.66699 -13 -12 -23s-8 -18.833 -11 -26.5l-11 -28.5c-4.33301 -11.333 -8.5 -21 -12.5 -29h96z" />
    <glyph glyph-name="circumflex" unicode="&#x2c6;" horiz-adv-x="333" 
d="M232 726h169l89 -145h-130l-57 77l-91 -77h-130z" />
    <glyph glyph-name="caron" unicode="&#x2c7;" horiz-adv-x="333" 
d="M304 647l92 79h127l-151 -145h-167l-88 145h126z" />
    <glyph glyph-name="ring" unicode="&#x2da;" horiz-adv-x="333" 
d="M418 653c-6.66699 -31.333 -23.167 -57.833 -49.5 -79.5s-55.166 -32.5 -86.499 -32.5c-30.667 0 -54.667 11 -72 33s-22.666 48.333 -15.999 79c6.66699 31.333 23.167 58 49.5 80s55.166 33 86.499 33c30.667 0 54.667 -11 72 -33s22.666 -48.667 15.999 -80z
M358.5 653c3 14.667 0.499023 27.332 -7.50098 37.999s-19.333 16 -34 16s-28.167 -5.16699 -40.5 -15.5s-20.166 -23.166 -23.499 -38.499c-3.33301 -14.667 -0.833008 -27.167 7.5 -37.5s19.833 -15.5 34.5 -15.5s28.167 5.16699 40.5 15.5s20 22.833 23 37.5z" />
    <glyph glyph-name="tilde" unicode="&#x2dc;" horiz-adv-x="333" 
d="M145 581h-77.998c10.667 39.333 32 73 64 101c34.667 30 72.667 45 114 45c17.333 0 40.666 -4.66699 69.999 -14l72 -22c12.667 -4 22.667 -6 30 -6c19.333 0 33 13 41 39h81c-12 -40 -34.333 -74 -67 -102s-67.334 -42 -104.001 -42c-12.667 0 -28.667 3 -48 9l-77 24
c-17.333 5.33301 -31 8 -41 8c-25.333 0 -44.333 -13.333 -57 -40z" />
    <glyph glyph-name="endash" unicode="&#x2013;" horiz-adv-x="500" 
d="M43 204l27 127h500l-27 -127h-500z" />
    <glyph glyph-name="emdash" unicode="&#x2014;" horiz-adv-x="1000" 
d="M173 204l27 127h740l-27 -127h-740z" />
    <glyph glyph-name="quoteleft" unicode="&#x2018;" horiz-adv-x="333" 
d="M312 456h-186l175 266h134z" />
    <glyph glyph-name="quoteright" unicode="&#x2019;" horiz-adv-x="333" 
d="M259 722h187l-175 -266h-135z" />
    <glyph glyph-name="quotesinglbase" unicode="&#x201a;" horiz-adv-x="333" 
d="M2 -97l111 236h172l-156 -236h-127z" />
    <glyph glyph-name="quotedblleft" unicode="&#x201c;" 
d="M375 456h-187l176 266h134zM617 456h-187l176 266h134z" />
    <glyph glyph-name="quotedblright" unicode="&#x201d;" 
d="M313 722h186l-175 -266h-134zM555 722h186l-175 -266h-134z" />
    <glyph glyph-name="quotedblbase" unicode="&#x201e;" 
d="M74 -97l111 236h171l-155 -236h-127zM311 -97l111 236h172l-156 -236h-127z" />
    <glyph glyph-name="dagger" unicode="&#x2020;" 
d="M344 441h-171l26 125h171l33 156h156l-33 -156h168l-26 -125h-168l-94 -441h-156z" />
    <glyph glyph-name="daggerdbl" unicode="&#x2021;" 
d="M111 150l26 125h171l37 174h-171l27 125h171l31 148h156l-31 -148h168l-27 -125h-168l-37 -174h168l-26 -125h-168l-32 -150h-156l32 150h-171z" />
    <glyph glyph-name="bullet" unicode="&#x2022;" horiz-adv-x="500" 
d="M365 542c49.333 0 88.167 -17.667 116.5 -53s37.166 -78 26.499 -128c-10.667 -49.333 -37.5 -91.666 -80.5 -126.999s-89.5 -53 -139.5 -53s-88.833 17.667 -116.5 53s-36.167 77.666 -25.5 126.999c10.667 50 37.334 92.667 80.001 128s89 53 139 53z" />
    <glyph glyph-name="ellipsis" unicode="&#x2026;" horiz-adv-x="1000" 
d="M79 0l32 149h176l-32 -149h-176zM412 0l32 149h176l-32 -149h-176zM745 0l32 149h176l-32 -149h-176z" />
    <glyph glyph-name="perthousand" unicode="&#x2030;" horiz-adv-x="1000" 
d="M131 553c11.333 54 32.833 96.833 64.5 128.5s71.5 47.5 119.5 47.5c45.333 0 77 -15 95 -45s21.333 -71.667 10 -125c-12.667 -58 -35.334 -101.667 -68.001 -131c-31.333 -29.333 -69 -44 -113 -44s-76.167 14 -96.5 42s-24.166 70.333 -11.499 127zM236 555
c-13.333 -63.333 -6.99805 -95 19.002 -95c25.333 0 45 34 59 102c7.33301 34 9.16602 57.333 5.49902 70s-11.834 19 -24.501 19c-26 0 -45.667 -32 -59 -96zM392.002 163c11.333 54 32.834 96.834 64.501 128.501s71.5 47.5 119.5 47.5c45.333 0 77.166 -15 95.499 -45
s21.833 -71.667 10.5 -125c-12 -56.667 -34.667 -100.334 -68 -131.001c-32 -29.333 -69.667 -44 -113 -44c-44.667 0 -76.667 14 -96 42c-20.667 28.667 -25 71 -13 127zM498.003 165.001c-13.333 -63.333 -6.99902 -95 19.001 -95c25.333 0 45.333 34 60 102
c6.66699 34 8.16699 57.333 4.5 70s-11.834 19 -24.501 19c-26 0 -45.667 -32 -59 -96zM727.004 163.001c11.333 54 32.834 96.833 64.501 128.5s71.5 47.5 119.5 47.5c45.333 0 77 -15 95 -45s21.333 -71.667 10 -125c-12.667 -58 -35.334 -101.667 -68.001 -131
c-31.333 -29.333 -69 -44 -113 -44s-76 14 -96 42s-24 70.333 -12 127zM832.005 165.001c-13.333 -63.333 -6.99902 -95 19.001 -95c25.333 0 45.333 34 60 102c6.66699 34 8.16699 57.333 4.5 70s-11.834 19 -24.501 19c-26 0 -45.667 -32 -59 -96zM42.0059 -19.999
l624 764h98l-622 -764h-100z" />
    <glyph glyph-name="guilsinglleft" unicode="&#x2039;" horiz-adv-x="333" 
d="M245 449h155l-160 -196l78 -194h-154l-84 196z" />
    <glyph glyph-name="guilsinglright" unicode="&#x203a;" horiz-adv-x="333" 
d="M194 59h-155l160 196l-78 194h154l84 -196z" />
    <glyph glyph-name="Euro" unicode="&#x20ac;" 
d="M472 211l-124.002 0.00292969c-1.33301 -27.333 3.66699 -49.666 15 -66.999s29.666 -26 54.999 -26c41.333 0 70.666 17 87.999 51h189c-25.333 -60.667 -66.666 -107 -123.999 -139c-50.667 -29.333 -111.334 -44 -182.001 -44
c-74.667 0 -130.834 20.167 -168.501 60.5s-58.167 95.166 -61.5 164.499h-114l65 108h56c0.666992 3.33301 1.33398 7.66602 2.00098 12.999s1.33398 9.66602 2.00098 12.999c0.666992 2 1.83398 6.33301 3.50098 13s2.83398 11 3.50098 13h-93l65 108h65
c32 71.333 75.833 128.166 131.5 170.499s121.834 63.5 198.501 63.5c152.667 0 226.667 -62.333 222 -187h-187c0 20 -4.33301 34 -13 42c-9.33301 8.66699 -26 13 -50 13c-50 0 -87.333 -34 -112 -102h231l-66 -108h-197l-6 -26l-5 -26h177z" />
    <glyph glyph-name="trademark" unicode="&#x2122;" horiz-adv-x="950" 
d="M247 361l62 291h-108l14 70h320l-14 -70h-112l-62 -291h-100zM489 361l76 361h155l6 -245l109 245h154l-76 -361h-91l68 304l-149 -304h-89l-15 304l-64 -304h-84z" />
    </font>
</defs>
</svg>
