<svg width="277" height="49" viewBox="0 0 277 49" fill="none" xmlns="http://www.w3.org/2000/svg">
<g clip-path="url(#clip0)">
<path d="M155.275 47.1109L156.007 47.066C156.052 47.3357 156.098 47.5605 156.235 47.7403C156.372 47.9201 156.555 48.055 156.83 48.1898C157.104 48.2797 157.378 48.3697 157.698 48.3697C157.972 48.3697 158.247 48.3247 158.475 48.2348C158.704 48.1449 158.841 48.055 158.978 47.8752C159.069 47.7403 159.161 47.5605 159.161 47.3807C159.161 47.2008 159.115 47.066 159.024 46.9311C158.932 46.7963 158.749 46.7063 158.521 46.6164C158.384 46.5715 158.018 46.4816 157.515 46.3467C157.012 46.2119 156.647 46.1219 156.418 45.9871C156.144 45.8522 155.961 45.6724 155.824 45.4476C155.687 45.2229 155.641 44.9981 155.641 44.7733C155.641 44.5036 155.733 44.2339 155.87 43.9641C156.052 43.7394 156.281 43.5146 156.601 43.4247C156.921 43.2898 157.241 43.2449 157.652 43.2449C158.064 43.2449 158.429 43.2898 158.749 43.4247C159.069 43.5596 159.298 43.7394 159.481 44.0091C159.664 44.2788 159.755 44.5485 159.755 44.9082L159.024 44.9531C158.978 44.5935 158.841 44.3238 158.612 44.144C158.384 43.9641 158.064 43.8742 157.607 43.8742C157.15 43.8742 156.83 43.9641 156.601 44.099C156.372 44.2788 156.281 44.4586 156.281 44.6834C156.281 44.8632 156.372 45.043 156.51 45.1779C156.647 45.3128 157.012 45.4476 157.652 45.5825C158.292 45.7174 158.704 45.8522 158.932 45.9421C159.252 46.077 159.526 46.3018 159.664 46.5265C159.801 46.7513 159.892 47.021 159.892 47.3357C159.892 47.6504 159.801 47.9201 159.618 48.1898C159.435 48.4596 159.206 48.6394 158.886 48.8192C158.567 48.9541 158.201 49.044 157.789 49.044C157.287 49.044 156.83 48.9541 156.51 48.8192C156.19 48.6843 155.87 48.4596 155.687 48.1449C155.413 47.8302 155.321 47.4706 155.275 47.1109Z" fill="#F3F3F3"/>
<path d="M162.406 48.9101V43.2908H163.549L164.874 47.2468C165.012 47.6064 165.103 47.8761 165.149 48.0559C165.194 47.8312 165.332 47.5614 165.469 47.1569L166.84 43.2458H167.846V48.8651H167.114V44.2348L165.469 48.9101H164.783L163.137 44.1449V48.9101H162.406Z" fill="#F3F3F3"/>
<path d="M170.634 48.9101V43.2908H171.777L173.102 47.2468C173.239 47.6064 173.331 47.8761 173.376 48.0559C173.422 47.8312 173.559 47.5614 173.696 47.1569L175.068 43.2458H176.073V48.8651H175.342V44.2348L173.696 48.9101H173.011L171.365 44.1449V48.9101H170.634Z" fill="#F3F3F3"/>
<path d="M181.604 48.91L183.798 43.2908H184.621L186.952 48.91H186.084L185.398 47.2018H183.021L182.381 48.91H181.604ZM183.25 46.6174H185.169L184.575 45.0889C184.392 44.6394 184.255 44.2348 184.164 43.9201C184.072 44.2798 183.981 44.6394 183.844 44.999L183.25 46.6174Z" fill="#F3F3F3"/>
<path d="M191.797 46.7074V46.033H194.22V48.1009C193.854 48.3707 193.489 48.5954 193.077 48.7752C192.666 48.9101 192.3 49 191.889 49C191.34 49 190.837 48.8651 190.38 48.6404C189.923 48.4156 189.558 48.056 189.329 47.6064C189.101 47.1569 188.963 46.6624 188.963 46.1229C188.963 45.5835 189.101 45.089 189.329 44.5945C189.558 44.1 189.878 43.7853 190.335 43.5606C190.792 43.3358 191.249 43.2009 191.843 43.2009C192.254 43.2009 192.62 43.2459 192.94 43.3807C193.26 43.5156 193.534 43.6954 193.717 43.9202C193.9 44.145 194.037 44.4596 194.129 44.8193L193.443 44.9991C193.352 44.7294 193.26 44.5046 193.123 44.3248C192.986 44.145 192.803 44.0101 192.574 43.9202C192.346 43.8303 192.072 43.7853 191.797 43.7853C191.432 43.7853 191.157 43.8303 190.883 43.9202C190.655 44.0101 190.426 44.145 190.289 44.3248C190.152 44.5046 190.015 44.6844 189.923 44.8642C189.786 45.2239 189.695 45.5835 189.695 45.9881C189.695 46.4826 189.786 46.8872 189.969 47.2468C190.152 47.5615 190.38 47.8312 190.746 48.011C191.112 48.1908 191.432 48.2358 191.797 48.2358C192.117 48.2358 192.437 48.1908 192.757 48.056C193.077 47.9211 193.306 47.7863 193.443 47.6514V46.6174H191.797V46.7074Z" fill="#F3F3F3"/>
<path d="M196.917 48.91V43.2908H201.031V43.9651H197.648V45.6733H200.802V46.3476H197.648V48.2357H201.122V48.91H196.917Z" fill="#F3F3F3"/>
<path d="M203.773 48.91V43.2908H204.55L207.521 47.6963V43.2908H208.253V48.91H207.476L204.505 44.5045V48.91H203.773Z" fill="#F3F3F3"/>
<path d="M215.201 46.9321L215.932 47.1119C215.795 47.7413 215.475 48.1908 215.064 48.5055C214.652 48.8202 214.149 49 213.555 49C212.961 49 212.458 48.8651 212.047 48.6404C211.681 48.4156 211.361 48.056 211.178 47.5615C210.995 47.067 210.858 46.6174 210.858 46.078C210.858 45.4936 210.95 44.9991 211.178 44.5496C211.407 44.1 211.727 43.7853 212.138 43.5606C212.549 43.3358 213.007 43.2009 213.509 43.2009C214.058 43.2009 214.561 43.3358 214.926 43.6505C215.292 43.9202 215.566 44.3248 215.749 44.8642L215.018 45.044C214.881 44.6395 214.698 44.3248 214.424 44.145C214.195 43.9651 213.875 43.8752 213.464 43.8752C213.007 43.8752 212.641 43.9652 212.367 44.1899C212.092 44.4147 211.864 44.6844 211.727 44.9991C211.59 45.3587 211.544 45.7184 211.544 46.078C211.544 46.5725 211.635 46.9771 211.772 47.3367C211.91 47.6963 212.138 47.9661 212.412 48.1459C212.732 48.3257 213.052 48.4156 213.372 48.4156C213.784 48.4156 214.149 48.2807 214.424 48.056C214.698 47.8312 215.064 47.4266 215.201 46.9321Z" fill="#F3F3F3"/>
<path d="M220.046 48.91V46.5275L217.852 43.2908H218.766L219.909 44.999C220.137 45.3137 220.32 45.6284 220.503 45.9431C220.686 45.6284 220.869 45.3137 221.143 44.9541L222.24 43.2908H223.108L220.823 46.5275V48.91H220.046Z" fill="#F3F3F3"/>
<path d="M156.51 0H275.446C276.314 0 277 0.674312 277 1.52844V30.9284C277 31.7826 276.314 32.4569 275.446 32.4569H156.51C155.641 32.4569 154.955 31.7826 154.955 30.9284V1.52844C154.955 0.674312 155.641 0 156.51 0Z" fill="#FF55CF"/>
<path d="M44.064 47.2469C44.064 47.2019 23.769 1.07901 23.769 1.07901C23.4033 0.404702 23.2662 0.179932 22.3977 0.179932H22.1691C21.3921 0.179932 21.0721 0.404702 20.7064 1.07901L0.137129 47.2469C0 47.4717 0 47.6964 0 47.8763C0 48.5056 0.548515 48.9102 1.32558 48.9102H5.7137L22.2149 10.7891L38.6703 48.9102H43.1041C43.8812 48.9102 44.2926 48.6405 44.2926 48.101C44.2469 47.8763 44.2469 47.7414 44.064 47.2469Z" fill="white"/>
<path d="M72.0383 25.2643C76.9292 24.9046 81.0888 20.3643 81.0888 15.5542C81.0888 10.6092 76.7921 5.84409 71.5812 5.84409H54.9429C54.1658 5.84409 53.8459 5.34959 53.8459 4.67528V1.30372C53.8459 0.629409 54.2573 0.269775 54.9429 0.269775H71.6726C79.9003 0.269775 86.9396 7.28262 86.9396 15.4643C86.9396 22.3423 81.9573 28.5909 75.1923 30.479L85.9797 48.1459C86.1168 48.4156 86.2083 48.5505 86.2083 48.6854C86.2083 48.8202 85.9797 48.9101 85.5683 48.9101H80.4031C79.7175 48.9101 79.2147 48.4156 78.8947 47.8762L68.4729 30.8386H56.6799V47.8762C56.6799 48.5505 56.3142 48.9101 55.6286 48.9101H52.0175C51.2404 48.9101 50.9205 48.5505 50.9205 47.8762V26.4331C50.9205 25.7588 51.4233 25.2643 52.0175 25.2643H72.0383Z" fill="#FF55CF"/>
<path d="M134.523 0.224771C135.575 0.224771 135.849 0.719266 135.849 1.30367L135.483 47.8762C135.483 48.5505 135.072 48.9101 134.249 48.9101H129.815L99.1441 8.18165V33.4459L111.211 33.5358C111.851 33.5358 112.263 34.0303 112.263 34.6147V38.0761C112.263 38.7055 111.851 39.245 111.166 39.245L94.4817 39.1101C93.796 39.1101 93.4304 38.7505 93.4304 38.211V1.0789C93.4304 0.449541 93.9332 0 94.6188 0H99.3726C99.8754 0 100.195 0.224771 100.47 0.53945L129.815 39.4697L130.089 1.21376C130.089 0.674312 130.592 0.179817 131.141 0.179817H134.158H134.523V0.224771ZM118.296 44.2798V47.7413C118.296 48.3706 117.794 48.9101 117.199 48.9101H94.4817C93.8417 48.9101 93.4304 48.5505 93.4304 47.8762V44.4147C93.4304 43.7404 93.796 43.2009 94.5274 43.2009H117.245C117.885 43.2009 118.296 43.6505 118.296 44.2798Z" fill="white"/>
<path d="M147.002 0.269775C147.916 0.269775 148.19 0.764271 148.19 1.34867V47.8762C148.19 48.5505 147.688 48.9101 147.002 48.9101H143.391C142.705 48.9101 142.34 48.5505 142.34 47.8762V1.30372C142.34 0.674363 142.842 0.269775 143.391 0.269775H147.002Z" fill="white"/>
<path d="M36.979 37.6267H6.17078V43.201H36.979V37.6267Z" fill="white"/>
<path d="M118.296 44.2798V47.7413C118.296 48.3707 117.794 48.9101 117.199 48.9101H94.4817C93.8417 48.9101 93.4304 48.5505 93.4304 47.8762V44.4147C93.4304 43.7404 93.796 43.2009 94.5274 43.2009H117.245C117.885 43.2009 118.296 43.6505 118.296 44.2798Z" fill="#FF55CF"/>
<path d="M169.445 22.8818H167.297C167.251 22.8818 167.16 22.8368 167.16 22.7919L164.737 16.1836L162.315 22.7919C162.315 22.8368 162.223 22.8818 162.178 22.8818H160.075C159.938 22.8818 159.892 22.7919 159.938 22.702L164.6 11.1488C164.646 11.0139 164.874 11.0139 164.92 11.1488L169.583 22.702C169.628 22.7919 169.583 22.8818 169.445 22.8818Z" fill="white"/>
<path d="M183.57 11.1937V22.7469C183.57 22.7919 183.524 22.8818 183.387 22.8818H181.33C181.284 22.8818 181.193 22.8818 181.193 22.8368L175.525 15.0598V20.0497H173.148V11.1937C173.148 11.1487 173.239 11.0588 173.285 11.0588H175.342C175.388 11.0588 175.479 11.0588 175.479 11.1038L181.193 18.8809V11.1937C181.193 11.1487 181.284 11.0588 181.376 11.0588H183.387C183.524 11.0588 183.57 11.1487 183.57 11.1937Z" fill="white"/>
<path d="M192.392 20.9937V22.7469C192.392 22.7919 192.346 22.8818 192.209 22.8818H187.364C187.272 22.8818 187.181 22.7919 187.181 22.7469V20.9937C187.181 20.9038 187.272 20.8588 187.364 20.8588H188.643V16.6781V13.0818V11.0588H191.02V13.0818V16.6781V20.8588H192.254C192.346 20.8588 192.392 20.9487 192.392 20.9937Z" fill="white"/>
<path d="M206.836 16.2735L203.682 22.2974C203.682 22.3423 203.59 22.3873 203.545 22.3873H201.625C201.579 22.3873 201.488 22.3423 201.488 22.2974L198.151 16.0937V22.7469C198.151 22.7919 198.06 22.8818 197.968 22.8818H195.911C195.82 22.8818 195.774 22.7919 195.774 22.7469V11.1937C195.774 11.1487 195.82 11.0588 195.911 11.0588H197.968C198.014 11.0588 198.105 11.1038 198.105 11.1487L202.539 19.8249L206.744 11.1487C206.79 11.1038 206.836 11.0588 206.927 11.0588H208.984C209.076 11.0588 209.167 11.1487 209.167 11.1937V20.0497H206.836V16.2735Z" fill="white"/>
<path d="M222.514 22.8818H220.366C220.32 22.8818 220.229 22.8368 220.229 22.7919L217.806 16.1836L215.384 22.7919C215.384 22.8368 215.292 22.8818 215.246 22.8818H213.144C213.007 22.8818 212.961 22.7919 213.007 22.702L217.669 11.1488C217.715 11.0139 217.943 11.0139 217.989 11.1488L222.697 22.702C222.697 22.7919 222.606 22.8818 222.514 22.8818Z" fill="white"/>
<path d="M226.217 12.9469V11.1937C226.217 11.1487 226.308 11.0588 226.4 11.0588H233.485C233.576 11.0588 233.667 11.1487 233.667 11.1937V12.9469C233.667 13.0368 233.622 13.0818 233.485 13.0818H226.4C226.308 13.0818 226.217 13.0368 226.217 12.9469ZM231.108 15.3744V22.7919C231.108 22.8368 231.016 22.9267 230.925 22.9267H228.914C228.822 22.9267 228.731 22.8368 228.731 22.7919V15.3744H231.108Z" fill="white"/>
<path d="M242.306 20.9937V22.7469C242.306 22.7919 242.261 22.8818 242.124 22.8818H237.278C237.187 22.8818 237.096 22.7919 237.096 22.7469V20.9937C237.096 20.9038 237.187 20.8588 237.278 20.8588H238.558V16.6781V13.0818V11.0588H240.935V13.0818V16.6781V20.8588H242.169C242.261 20.8588 242.306 20.9487 242.306 20.9937Z" fill="white"/>
<path d="M251.631 22.8818C247.609 22.8818 245.689 19.9148 245.689 16.9478C245.689 14.0258 247.654 11.0588 251.631 11.0588C255.562 11.0588 257.573 14.0258 257.573 16.9478C257.573 19.9148 255.562 22.8818 251.631 22.8818ZM251.631 13.1717C249.209 13.1717 248.02 15.1047 248.02 17.0377C248.02 18.9258 249.209 20.8588 251.631 20.8588C254.008 20.8588 255.242 18.9708 255.242 17.0377C255.242 15.0598 254.008 13.1717 251.631 13.1717ZM251.631 18.1166C250.991 18.1166 250.488 17.6221 250.488 16.9928C250.488 16.3634 250.991 15.8689 251.631 15.8689C252.271 15.8689 252.774 16.3634 252.774 16.9928C252.774 17.6221 252.271 18.1166 251.631 18.1166Z" fill="white"/>
<path d="M271.652 11.1937V22.7469C271.652 22.7919 271.606 22.8818 271.469 22.8818H269.412C269.367 22.8818 269.275 22.8818 269.275 22.8368L263.607 15.0598V20.0497H261.23V11.1937C261.23 11.1487 261.322 11.0588 261.367 11.0588H263.424C263.47 11.0588 263.561 11.0588 263.561 11.1038L269.275 18.8809V11.1937C269.275 11.1487 269.366 11.0588 269.458 11.0588H271.469C271.561 11.0588 271.652 11.1487 271.652 11.1937Z" fill="white"/>
</g>
<defs>
<clipPath id="clip0">
<rect width="277" height="49" fill="white"/>
</clipPath>
</defs>
</svg>
